%TF.GenerationSoftware,KiCad,Pcbnew,8.0.6*%
%TF.CreationDate,2025-05-29T23:44:25-06:00*%
%TF.ProjectId,GripForceMeasurementDeviceCkt_STM32F103C8T6,47726970-466f-4726-9365-4d6561737572,rev?*%
%TF.SameCoordinates,Original*%
%TF.FileFunction,Paste,Bot*%
%TF.FilePolarity,Positive*%
%FSLAX46Y46*%
G04 Gerber Fmt 4.6, Leading zero omitted, Abs format (unit mm)*
G04 Created by KiCad (PCBNEW 8.0.6) date 2025-05-29 23:44:25*
%MOMM*%
%LPD*%
G01*
G04 APERTURE LIST*
G04 Aperture macros list*
%AMRoundRect*
0 Rectangle with rounded corners*
0 $1 Rounding radius*
0 $2 $3 $4 $5 $6 $7 $8 $9 X,Y pos of 4 corners*
0 Add a 4 corners polygon primitive as box body*
4,1,4,$2,$3,$4,$5,$6,$7,$8,$9,$2,$3,0*
0 Add four circle primitives for the rounded corners*
1,1,$1+$1,$2,$3*
1,1,$1+$1,$4,$5*
1,1,$1+$1,$6,$7*
1,1,$1+$1,$8,$9*
0 Add four rect primitives between the rounded corners*
20,1,$1+$1,$2,$3,$4,$5,0*
20,1,$1+$1,$4,$5,$6,$7,0*
20,1,$1+$1,$6,$7,$8,$9,0*
20,1,$1+$1,$8,$9,$2,$3,0*%
G04 Aperture macros list end*
%ADD10RoundRect,0.225000X-0.225000X-0.250000X0.225000X-0.250000X0.225000X0.250000X-0.225000X0.250000X0*%
%ADD11RoundRect,0.075000X-0.662500X-0.075000X0.662500X-0.075000X0.662500X0.075000X-0.662500X0.075000X0*%
%ADD12RoundRect,0.075000X-0.075000X-0.662500X0.075000X-0.662500X0.075000X0.662500X-0.075000X0.662500X0*%
%ADD13R,0.300000X1.300000*%
%ADD14R,1.800000X2.200000*%
%ADD15RoundRect,0.225000X0.225000X0.250000X-0.225000X0.250000X-0.225000X-0.250000X0.225000X-0.250000X0*%
%ADD16RoundRect,0.225000X0.250000X-0.225000X0.250000X0.225000X-0.250000X0.225000X-0.250000X-0.225000X0*%
%ADD17RoundRect,0.200000X-0.200000X-0.275000X0.200000X-0.275000X0.200000X0.275000X-0.200000X0.275000X0*%
%ADD18RoundRect,0.218750X-0.218750X-0.381250X0.218750X-0.381250X0.218750X0.381250X-0.218750X0.381250X0*%
G04 APERTURE END LIST*
D10*
%TO.C,C1*%
X81019000Y-43805500D03*
X82569000Y-43805500D03*
%TD*%
%TO.C,C14*%
X88325000Y-38513500D03*
X89875000Y-38513500D03*
%TD*%
%TO.C,C5*%
X81045000Y-38194500D03*
X82595000Y-38194500D03*
%TD*%
D11*
%TO.C,U10*%
X146334500Y-79794000D03*
X146334500Y-79294000D03*
X146334500Y-78794000D03*
X146334500Y-78294000D03*
X146334500Y-77794000D03*
X146334500Y-77294000D03*
X146334500Y-76794000D03*
X146334500Y-76294000D03*
X146334500Y-75794000D03*
X146334500Y-75294000D03*
X146334500Y-74794000D03*
X146334500Y-74294000D03*
D12*
X147747000Y-72881500D03*
X148247000Y-72881500D03*
X148747000Y-72881500D03*
X149247000Y-72881500D03*
X149747000Y-72881500D03*
X150247000Y-72881500D03*
X150747000Y-72881500D03*
X151247000Y-72881500D03*
X151747000Y-72881500D03*
X152247000Y-72881500D03*
X152747000Y-72881500D03*
X153247000Y-72881500D03*
D11*
X154659500Y-74294000D03*
X154659500Y-74794000D03*
X154659500Y-75294000D03*
X154659500Y-75794000D03*
X154659500Y-76294000D03*
X154659500Y-76794000D03*
X154659500Y-77294000D03*
X154659500Y-77794000D03*
X154659500Y-78294000D03*
X154659500Y-78794000D03*
X154659500Y-79294000D03*
X154659500Y-79794000D03*
D12*
X153247000Y-81206500D03*
X152747000Y-81206500D03*
X152247000Y-81206500D03*
X151747000Y-81206500D03*
X151247000Y-81206500D03*
X150747000Y-81206500D03*
X150247000Y-81206500D03*
X149747000Y-81206500D03*
X149247000Y-81206500D03*
X148747000Y-81206500D03*
X148247000Y-81206500D03*
X147747000Y-81206500D03*
%TD*%
D10*
%TO.C,C6*%
X81073000Y-39991500D03*
X82623000Y-39991500D03*
%TD*%
D11*
%TO.C,U11*%
X70604000Y-79788000D03*
X70604000Y-79288000D03*
X70604000Y-78788000D03*
X70604000Y-78288000D03*
X70604000Y-77788000D03*
X70604000Y-77288000D03*
X70604000Y-76788000D03*
X70604000Y-76288000D03*
X70604000Y-75788000D03*
X70604000Y-75288000D03*
X70604000Y-74788000D03*
X70604000Y-74288000D03*
D12*
X72016500Y-72875500D03*
X72516500Y-72875500D03*
X73016500Y-72875500D03*
X73516500Y-72875500D03*
X74016500Y-72875500D03*
X74516500Y-72875500D03*
X75016500Y-72875500D03*
X75516500Y-72875500D03*
X76016500Y-72875500D03*
X76516500Y-72875500D03*
X77016500Y-72875500D03*
X77516500Y-72875500D03*
D11*
X78929000Y-74288000D03*
X78929000Y-74788000D03*
X78929000Y-75288000D03*
X78929000Y-75788000D03*
X78929000Y-76288000D03*
X78929000Y-76788000D03*
X78929000Y-77288000D03*
X78929000Y-77788000D03*
X78929000Y-78288000D03*
X78929000Y-78788000D03*
X78929000Y-79288000D03*
X78929000Y-79788000D03*
D12*
X77516500Y-81200500D03*
X77016500Y-81200500D03*
X76516500Y-81200500D03*
X76016500Y-81200500D03*
X75516500Y-81200500D03*
X75016500Y-81200500D03*
X74516500Y-81200500D03*
X74016500Y-81200500D03*
X73516500Y-81200500D03*
X73016500Y-81200500D03*
X72516500Y-81200500D03*
X72016500Y-81200500D03*
%TD*%
D13*
%TO.C,J15*%
X158247000Y-85199000D03*
X157747000Y-85199000D03*
X157247000Y-85199000D03*
X156747000Y-85199000D03*
X156247000Y-85199000D03*
X155747000Y-85199000D03*
X155247000Y-85199000D03*
X154747000Y-85199000D03*
X154247000Y-85199000D03*
X153747000Y-85199000D03*
X153247000Y-85199000D03*
X152747000Y-85199000D03*
X152247000Y-85199000D03*
X151747000Y-85199000D03*
X151247000Y-85199000D03*
X150747000Y-85199000D03*
X150247000Y-85199000D03*
X149747000Y-85199000D03*
X149247000Y-85199000D03*
X148747000Y-85199000D03*
X148247000Y-85199000D03*
X147747000Y-85199000D03*
X147247000Y-85199000D03*
X146747000Y-85199000D03*
X146247000Y-85199000D03*
X145747000Y-85199000D03*
X145247000Y-85199000D03*
X144747000Y-85199000D03*
X144247000Y-85199000D03*
X143747000Y-85199000D03*
X143247000Y-85199000D03*
X142747000Y-85199000D03*
D14*
X160147000Y-88449000D03*
X140847000Y-88449000D03*
%TD*%
D10*
%TO.C,C7*%
X81042000Y-36379500D03*
X82592000Y-36379500D03*
%TD*%
%TO.C,C2*%
X72644000Y-39445000D03*
X74194000Y-39445000D03*
%TD*%
D11*
%TO.C,U12*%
X96134000Y-79797000D03*
X96134000Y-79297000D03*
X96134000Y-78797000D03*
X96134000Y-78297000D03*
X96134000Y-77797000D03*
X96134000Y-77297000D03*
X96134000Y-76797000D03*
X96134000Y-76297000D03*
X96134000Y-75797000D03*
X96134000Y-75297000D03*
X96134000Y-74797000D03*
X96134000Y-74297000D03*
D12*
X97546500Y-72884500D03*
X98046500Y-72884500D03*
X98546500Y-72884500D03*
X99046500Y-72884500D03*
X99546500Y-72884500D03*
X100046500Y-72884500D03*
X100546500Y-72884500D03*
X101046500Y-72884500D03*
X101546500Y-72884500D03*
X102046500Y-72884500D03*
X102546500Y-72884500D03*
X103046500Y-72884500D03*
D11*
X104459000Y-74297000D03*
X104459000Y-74797000D03*
X104459000Y-75297000D03*
X104459000Y-75797000D03*
X104459000Y-76297000D03*
X104459000Y-76797000D03*
X104459000Y-77297000D03*
X104459000Y-77797000D03*
X104459000Y-78297000D03*
X104459000Y-78797000D03*
X104459000Y-79297000D03*
X104459000Y-79797000D03*
D12*
X103046500Y-81209500D03*
X102546500Y-81209500D03*
X102046500Y-81209500D03*
X101546500Y-81209500D03*
X101046500Y-81209500D03*
X100546500Y-81209500D03*
X100046500Y-81209500D03*
X99546500Y-81209500D03*
X99046500Y-81209500D03*
X98546500Y-81209500D03*
X98046500Y-81209500D03*
X97546500Y-81209500D03*
%TD*%
D13*
%TO.C,J16*%
X57132000Y-85204000D03*
X56632000Y-85204000D03*
X56132000Y-85204000D03*
X55632000Y-85204000D03*
X55132000Y-85204000D03*
X54632000Y-85204000D03*
X54132000Y-85204000D03*
X53632000Y-85204000D03*
X53132000Y-85204000D03*
X52632000Y-85204000D03*
X52132000Y-85204000D03*
X51632000Y-85204000D03*
X51132000Y-85204000D03*
X50632000Y-85204000D03*
X50132000Y-85204000D03*
X49632000Y-85204000D03*
X49132000Y-85204000D03*
X48632000Y-85204000D03*
X48132000Y-85204000D03*
X47632000Y-85204000D03*
X47132000Y-85204000D03*
X46632000Y-85204000D03*
X46132000Y-85204000D03*
X45632000Y-85204000D03*
X45132000Y-85204000D03*
X44632000Y-85204000D03*
X44132000Y-85204000D03*
X43632000Y-85204000D03*
X43132000Y-85204000D03*
X42632000Y-85204000D03*
X42132000Y-85204000D03*
X41632000Y-85204000D03*
D14*
X59032000Y-88454000D03*
X39732000Y-88454000D03*
%TD*%
D13*
%TO.C,J18*%
X108047000Y-85204000D03*
X107547000Y-85204000D03*
X107047000Y-85204000D03*
X106547000Y-85204000D03*
X106047000Y-85204000D03*
X105547000Y-85204000D03*
X105047000Y-85204000D03*
X104547000Y-85204000D03*
X104047000Y-85204000D03*
X103547000Y-85204000D03*
X103047000Y-85204000D03*
X102547000Y-85204000D03*
X102047000Y-85204000D03*
X101547000Y-85204000D03*
X101047000Y-85204000D03*
X100547000Y-85204000D03*
X100047000Y-85204000D03*
X99547000Y-85204000D03*
X99047000Y-85204000D03*
X98547000Y-85204000D03*
X98047000Y-85204000D03*
X97547000Y-85204000D03*
X97047000Y-85204000D03*
X96547000Y-85204000D03*
X96047000Y-85204000D03*
X95547000Y-85204000D03*
X95047000Y-85204000D03*
X94547000Y-85204000D03*
X94047000Y-85204000D03*
X93547000Y-85204000D03*
X93047000Y-85204000D03*
X92547000Y-85204000D03*
D14*
X109947000Y-88454000D03*
X90647000Y-88454000D03*
%TD*%
D15*
%TO.C,C22*%
X93786000Y-72889000D03*
X92236000Y-72889000D03*
%TD*%
D10*
%TO.C,C12*%
X81039000Y-41852500D03*
X82589000Y-41852500D03*
%TD*%
D15*
%TO.C,C20*%
X144055000Y-72876000D03*
X142505000Y-72876000D03*
%TD*%
D16*
%TO.C,C3*%
X72684000Y-42850000D03*
X72684000Y-41300000D03*
%TD*%
D17*
%TO.C,R2*%
X73662000Y-47366500D03*
X75312000Y-47366500D03*
%TD*%
D15*
%TO.C,C24*%
X118998000Y-72892000D03*
X117448000Y-72892000D03*
%TD*%
D13*
%TO.C,J19*%
X133147000Y-85199000D03*
X132647000Y-85199000D03*
X132147000Y-85199000D03*
X131647000Y-85199000D03*
X131147000Y-85199000D03*
X130647000Y-85199000D03*
X130147000Y-85199000D03*
X129647000Y-85199000D03*
X129147000Y-85199000D03*
X128647000Y-85199000D03*
X128147000Y-85199000D03*
X127647000Y-85199000D03*
X127147000Y-85199000D03*
X126647000Y-85199000D03*
X126147000Y-85199000D03*
X125647000Y-85199000D03*
X125147000Y-85199000D03*
X124647000Y-85199000D03*
X124147000Y-85199000D03*
X123647000Y-85199000D03*
X123147000Y-85199000D03*
X122647000Y-85199000D03*
X122147000Y-85199000D03*
X121647000Y-85199000D03*
X121147000Y-85199000D03*
X120647000Y-85199000D03*
X120147000Y-85199000D03*
X119647000Y-85199000D03*
X119147000Y-85199000D03*
X118647000Y-85199000D03*
X118147000Y-85199000D03*
X117647000Y-85199000D03*
D14*
X135047000Y-88449000D03*
X115747000Y-88449000D03*
%TD*%
D15*
%TO.C,C21*%
X68246000Y-72925000D03*
X66696000Y-72925000D03*
%TD*%
D18*
%TO.C,FB1*%
X80977000Y-34256500D03*
X83102000Y-34256500D03*
%TD*%
D11*
%TO.C,U14*%
X121234000Y-79792000D03*
X121234000Y-79292000D03*
X121234000Y-78792000D03*
X121234000Y-78292000D03*
X121234000Y-77792000D03*
X121234000Y-77292000D03*
X121234000Y-76792000D03*
X121234000Y-76292000D03*
X121234000Y-75792000D03*
X121234000Y-75292000D03*
X121234000Y-74792000D03*
X121234000Y-74292000D03*
D12*
X122646500Y-72879500D03*
X123146500Y-72879500D03*
X123646500Y-72879500D03*
X124146500Y-72879500D03*
X124646500Y-72879500D03*
X125146500Y-72879500D03*
X125646500Y-72879500D03*
X126146500Y-72879500D03*
X126646500Y-72879500D03*
X127146500Y-72879500D03*
X127646500Y-72879500D03*
X128146500Y-72879500D03*
D11*
X129559000Y-74292000D03*
X129559000Y-74792000D03*
X129559000Y-75292000D03*
X129559000Y-75792000D03*
X129559000Y-76292000D03*
X129559000Y-76792000D03*
X129559000Y-77292000D03*
X129559000Y-77792000D03*
X129559000Y-78292000D03*
X129559000Y-78792000D03*
X129559000Y-79292000D03*
X129559000Y-79792000D03*
D12*
X128146500Y-81204500D03*
X127646500Y-81204500D03*
X127146500Y-81204500D03*
X126646500Y-81204500D03*
X126146500Y-81204500D03*
X125646500Y-81204500D03*
X125146500Y-81204500D03*
X124646500Y-81204500D03*
X124146500Y-81204500D03*
X123646500Y-81204500D03*
X123146500Y-81204500D03*
X122646500Y-81204500D03*
%TD*%
D15*
%TO.C,C4*%
X76152000Y-42837000D03*
X74602000Y-42837000D03*
%TD*%
%TO.C,C23*%
X42933000Y-72875000D03*
X41383000Y-72875000D03*
%TD*%
D13*
%TO.C,J17*%
X82517000Y-85204000D03*
X82017000Y-85204000D03*
X81517000Y-85204000D03*
X81017000Y-85204000D03*
X80517000Y-85204000D03*
X80017000Y-85204000D03*
X79517000Y-85204000D03*
X79017000Y-85204000D03*
X78517000Y-85204000D03*
X78017000Y-85204000D03*
X77517000Y-85204000D03*
X77017000Y-85204000D03*
X76517000Y-85204000D03*
X76017000Y-85204000D03*
X75517000Y-85204000D03*
X75017000Y-85204000D03*
X74517000Y-85204000D03*
X74017000Y-85204000D03*
X73517000Y-85204000D03*
X73017000Y-85204000D03*
X72517000Y-85204000D03*
X72017000Y-85204000D03*
X71517000Y-85204000D03*
X71017000Y-85204000D03*
X70517000Y-85204000D03*
X70017000Y-85204000D03*
X69517000Y-85204000D03*
X69017000Y-85204000D03*
X68517000Y-85204000D03*
X68017000Y-85204000D03*
X67517000Y-85204000D03*
X67017000Y-85204000D03*
D14*
X84417000Y-88454000D03*
X65117000Y-88454000D03*
%TD*%
D11*
%TO.C,U13*%
X45207000Y-79789000D03*
X45207000Y-79289000D03*
X45207000Y-78789000D03*
X45207000Y-78289000D03*
X45207000Y-77789000D03*
X45207000Y-77289000D03*
X45207000Y-76789000D03*
X45207000Y-76289000D03*
X45207000Y-75789000D03*
X45207000Y-75289000D03*
X45207000Y-74789000D03*
X45207000Y-74289000D03*
D12*
X46619500Y-72876500D03*
X47119500Y-72876500D03*
X47619500Y-72876500D03*
X48119500Y-72876500D03*
X48619500Y-72876500D03*
X49119500Y-72876500D03*
X49619500Y-72876500D03*
X50119500Y-72876500D03*
X50619500Y-72876500D03*
X51119500Y-72876500D03*
X51619500Y-72876500D03*
X52119500Y-72876500D03*
D11*
X53532000Y-74289000D03*
X53532000Y-74789000D03*
X53532000Y-75289000D03*
X53532000Y-75789000D03*
X53532000Y-76289000D03*
X53532000Y-76789000D03*
X53532000Y-77289000D03*
X53532000Y-77789000D03*
X53532000Y-78289000D03*
X53532000Y-78789000D03*
X53532000Y-79289000D03*
X53532000Y-79789000D03*
D12*
X52119500Y-81201500D03*
X51619500Y-81201500D03*
X51119500Y-81201500D03*
X50619500Y-81201500D03*
X50119500Y-81201500D03*
X49619500Y-81201500D03*
X49119500Y-81201500D03*
X48619500Y-81201500D03*
X48119500Y-81201500D03*
X47619500Y-81201500D03*
X47119500Y-81201500D03*
X46619500Y-81201500D03*
%TD*%
D10*
%TO.C,C13*%
X88338000Y-43525000D03*
X89888000Y-43525000D03*
%TD*%
M02*
