%TF.GenerationSoftware,KiCad,Pcbnew,8.0.6*%
%TF.CreationDate,2025-05-29T23:44:25-06:00*%
%TF.ProjectId,GripForceMeasurementDeviceCkt_STM32F103C8T6,47726970-466f-4726-9365-4d6561737572,rev?*%
%TF.SameCoordinates,Original*%
%TF.FileFunction,Legend,Bot*%
%TF.FilePolarity,Positive*%
%FSLAX46Y46*%
G04 Gerber Fmt 4.6, Leading zero omitted, Abs format (unit mm)*
G04 Created by KiCad (PCBNEW 8.0.6) date 2025-05-29 23:44:25*
%MOMM*%
%LPD*%
G01*
G04 APERTURE LIST*
%ADD10C,0.187500*%
%ADD11C,0.150000*%
%ADD12C,0.120000*%
G04 APERTURE END LIST*
D10*
X167113121Y-28760981D02*
X167446454Y-28284790D01*
X167684549Y-28760981D02*
X167684549Y-27760981D01*
X167684549Y-27760981D02*
X167303597Y-27760981D01*
X167303597Y-27760981D02*
X167208359Y-27808600D01*
X167208359Y-27808600D02*
X167160740Y-27856219D01*
X167160740Y-27856219D02*
X167113121Y-27951457D01*
X167113121Y-27951457D02*
X167113121Y-28094314D01*
X167113121Y-28094314D02*
X167160740Y-28189552D01*
X167160740Y-28189552D02*
X167208359Y-28237171D01*
X167208359Y-28237171D02*
X167303597Y-28284790D01*
X167303597Y-28284790D02*
X167684549Y-28284790D01*
X166303597Y-28713362D02*
X166398835Y-28760981D01*
X166398835Y-28760981D02*
X166589311Y-28760981D01*
X166589311Y-28760981D02*
X166684549Y-28713362D01*
X166684549Y-28713362D02*
X166732168Y-28618123D01*
X166732168Y-28618123D02*
X166732168Y-28237171D01*
X166732168Y-28237171D02*
X166684549Y-28141933D01*
X166684549Y-28141933D02*
X166589311Y-28094314D01*
X166589311Y-28094314D02*
X166398835Y-28094314D01*
X166398835Y-28094314D02*
X166303597Y-28141933D01*
X166303597Y-28141933D02*
X166255978Y-28237171D01*
X166255978Y-28237171D02*
X166255978Y-28332409D01*
X166255978Y-28332409D02*
X166732168Y-28427647D01*
X165970263Y-28094314D02*
X165589311Y-28094314D01*
X165827406Y-28760981D02*
X165827406Y-27903838D01*
X165827406Y-27903838D02*
X165779787Y-27808600D01*
X165779787Y-27808600D02*
X165684549Y-27760981D01*
X165684549Y-27760981D02*
X165589311Y-27760981D01*
X164875025Y-28713362D02*
X164970263Y-28760981D01*
X164970263Y-28760981D02*
X165160739Y-28760981D01*
X165160739Y-28760981D02*
X165255977Y-28713362D01*
X165255977Y-28713362D02*
X165303596Y-28618123D01*
X165303596Y-28618123D02*
X165303596Y-28237171D01*
X165303596Y-28237171D02*
X165255977Y-28141933D01*
X165255977Y-28141933D02*
X165160739Y-28094314D01*
X165160739Y-28094314D02*
X164970263Y-28094314D01*
X164970263Y-28094314D02*
X164875025Y-28141933D01*
X164875025Y-28141933D02*
X164827406Y-28237171D01*
X164827406Y-28237171D02*
X164827406Y-28332409D01*
X164827406Y-28332409D02*
X165303596Y-28427647D01*
X164398834Y-28760981D02*
X164398834Y-28094314D01*
X164398834Y-28284790D02*
X164351215Y-28189552D01*
X164351215Y-28189552D02*
X164303596Y-28141933D01*
X164303596Y-28141933D02*
X164208358Y-28094314D01*
X164208358Y-28094314D02*
X164113120Y-28094314D01*
X163398834Y-28713362D02*
X163494072Y-28760981D01*
X163494072Y-28760981D02*
X163684548Y-28760981D01*
X163684548Y-28760981D02*
X163779786Y-28713362D01*
X163779786Y-28713362D02*
X163827405Y-28618123D01*
X163827405Y-28618123D02*
X163827405Y-28237171D01*
X163827405Y-28237171D02*
X163779786Y-28141933D01*
X163779786Y-28141933D02*
X163684548Y-28094314D01*
X163684548Y-28094314D02*
X163494072Y-28094314D01*
X163494072Y-28094314D02*
X163398834Y-28141933D01*
X163398834Y-28141933D02*
X163351215Y-28237171D01*
X163351215Y-28237171D02*
X163351215Y-28332409D01*
X163351215Y-28332409D02*
X163827405Y-28427647D01*
X162922643Y-28094314D02*
X162922643Y-28760981D01*
X162922643Y-28189552D02*
X162875024Y-28141933D01*
X162875024Y-28141933D02*
X162779786Y-28094314D01*
X162779786Y-28094314D02*
X162636929Y-28094314D01*
X162636929Y-28094314D02*
X162541691Y-28141933D01*
X162541691Y-28141933D02*
X162494072Y-28237171D01*
X162494072Y-28237171D02*
X162494072Y-28760981D01*
X161589310Y-28713362D02*
X161684548Y-28760981D01*
X161684548Y-28760981D02*
X161875024Y-28760981D01*
X161875024Y-28760981D02*
X161970262Y-28713362D01*
X161970262Y-28713362D02*
X162017881Y-28665742D01*
X162017881Y-28665742D02*
X162065500Y-28570504D01*
X162065500Y-28570504D02*
X162065500Y-28284790D01*
X162065500Y-28284790D02*
X162017881Y-28189552D01*
X162017881Y-28189552D02*
X161970262Y-28141933D01*
X161970262Y-28141933D02*
X161875024Y-28094314D01*
X161875024Y-28094314D02*
X161684548Y-28094314D01*
X161684548Y-28094314D02*
X161589310Y-28141933D01*
X160779786Y-28713362D02*
X160875024Y-28760981D01*
X160875024Y-28760981D02*
X161065500Y-28760981D01*
X161065500Y-28760981D02*
X161160738Y-28713362D01*
X161160738Y-28713362D02*
X161208357Y-28618123D01*
X161208357Y-28618123D02*
X161208357Y-28237171D01*
X161208357Y-28237171D02*
X161160738Y-28141933D01*
X161160738Y-28141933D02*
X161065500Y-28094314D01*
X161065500Y-28094314D02*
X160875024Y-28094314D01*
X160875024Y-28094314D02*
X160779786Y-28141933D01*
X160779786Y-28141933D02*
X160732167Y-28237171D01*
X160732167Y-28237171D02*
X160732167Y-28332409D01*
X160732167Y-28332409D02*
X161208357Y-28427647D01*
X160303595Y-28665742D02*
X160255976Y-28713362D01*
X160255976Y-28713362D02*
X160303595Y-28760981D01*
X160303595Y-28760981D02*
X160351214Y-28713362D01*
X160351214Y-28713362D02*
X160303595Y-28665742D01*
X160303595Y-28665742D02*
X160303595Y-28760981D01*
X160303595Y-28141933D02*
X160255976Y-28189552D01*
X160255976Y-28189552D02*
X160303595Y-28237171D01*
X160303595Y-28237171D02*
X160351214Y-28189552D01*
X160351214Y-28189552D02*
X160303595Y-28141933D01*
X160303595Y-28141933D02*
X160303595Y-28237171D01*
X167779787Y-29704258D02*
X167589311Y-30370925D01*
X167589311Y-30370925D02*
X167398835Y-29894734D01*
X167398835Y-29894734D02*
X167208359Y-30370925D01*
X167208359Y-30370925D02*
X167017883Y-29704258D01*
X166732168Y-29704258D02*
X166541692Y-30370925D01*
X166541692Y-30370925D02*
X166351216Y-29894734D01*
X166351216Y-29894734D02*
X166160740Y-30370925D01*
X166160740Y-30370925D02*
X165970264Y-29704258D01*
X165684549Y-29704258D02*
X165494073Y-30370925D01*
X165494073Y-30370925D02*
X165303597Y-29894734D01*
X165303597Y-29894734D02*
X165113121Y-30370925D01*
X165113121Y-30370925D02*
X164922645Y-29704258D01*
X164541692Y-30275686D02*
X164494073Y-30323306D01*
X164494073Y-30323306D02*
X164541692Y-30370925D01*
X164541692Y-30370925D02*
X164589311Y-30323306D01*
X164589311Y-30323306D02*
X164541692Y-30275686D01*
X164541692Y-30275686D02*
X164541692Y-30370925D01*
X163636931Y-29704258D02*
X163636931Y-30370925D01*
X164065502Y-29704258D02*
X164065502Y-30228067D01*
X164065502Y-30228067D02*
X164017883Y-30323306D01*
X164017883Y-30323306D02*
X163922645Y-30370925D01*
X163922645Y-30370925D02*
X163779788Y-30370925D01*
X163779788Y-30370925D02*
X163684550Y-30323306D01*
X163684550Y-30323306D02*
X163636931Y-30275686D01*
X163160740Y-30370925D02*
X163160740Y-29704258D01*
X163160740Y-29894734D02*
X163113121Y-29799496D01*
X163113121Y-29799496D02*
X163065502Y-29751877D01*
X163065502Y-29751877D02*
X162970264Y-29704258D01*
X162970264Y-29704258D02*
X162875026Y-29704258D01*
X162541692Y-29704258D02*
X162541692Y-30370925D01*
X162541692Y-29799496D02*
X162494073Y-29751877D01*
X162494073Y-29751877D02*
X162398835Y-29704258D01*
X162398835Y-29704258D02*
X162255978Y-29704258D01*
X162255978Y-29704258D02*
X162160740Y-29751877D01*
X162160740Y-29751877D02*
X162113121Y-29847115D01*
X162113121Y-29847115D02*
X162113121Y-30370925D01*
X161255978Y-30323306D02*
X161351216Y-30370925D01*
X161351216Y-30370925D02*
X161541692Y-30370925D01*
X161541692Y-30370925D02*
X161636930Y-30323306D01*
X161636930Y-30323306D02*
X161684549Y-30228067D01*
X161684549Y-30228067D02*
X161684549Y-29847115D01*
X161684549Y-29847115D02*
X161636930Y-29751877D01*
X161636930Y-29751877D02*
X161541692Y-29704258D01*
X161541692Y-29704258D02*
X161351216Y-29704258D01*
X161351216Y-29704258D02*
X161255978Y-29751877D01*
X161255978Y-29751877D02*
X161208359Y-29847115D01*
X161208359Y-29847115D02*
X161208359Y-29942353D01*
X161208359Y-29942353D02*
X161684549Y-30037591D01*
X160351216Y-29704258D02*
X160351216Y-30370925D01*
X160779787Y-29704258D02*
X160779787Y-30228067D01*
X160779787Y-30228067D02*
X160732168Y-30323306D01*
X160732168Y-30323306D02*
X160636930Y-30370925D01*
X160636930Y-30370925D02*
X160494073Y-30370925D01*
X160494073Y-30370925D02*
X160398835Y-30323306D01*
X160398835Y-30323306D02*
X160351216Y-30275686D01*
X159875025Y-30370925D02*
X159875025Y-29704258D01*
X159875025Y-29894734D02*
X159827406Y-29799496D01*
X159827406Y-29799496D02*
X159779787Y-29751877D01*
X159779787Y-29751877D02*
X159684549Y-29704258D01*
X159684549Y-29704258D02*
X159589311Y-29704258D01*
X159113120Y-30370925D02*
X159208358Y-30323306D01*
X159208358Y-30323306D02*
X159255977Y-30275686D01*
X159255977Y-30275686D02*
X159303596Y-30180448D01*
X159303596Y-30180448D02*
X159303596Y-29894734D01*
X159303596Y-29894734D02*
X159255977Y-29799496D01*
X159255977Y-29799496D02*
X159208358Y-29751877D01*
X159208358Y-29751877D02*
X159113120Y-29704258D01*
X159113120Y-29704258D02*
X158970263Y-29704258D01*
X158970263Y-29704258D02*
X158875025Y-29751877D01*
X158875025Y-29751877D02*
X158827406Y-29799496D01*
X158827406Y-29799496D02*
X158779787Y-29894734D01*
X158779787Y-29894734D02*
X158779787Y-30180448D01*
X158779787Y-30180448D02*
X158827406Y-30275686D01*
X158827406Y-30275686D02*
X158875025Y-30323306D01*
X158875025Y-30323306D02*
X158970263Y-30370925D01*
X158970263Y-30370925D02*
X159113120Y-30370925D01*
X158208358Y-30370925D02*
X158303596Y-30323306D01*
X158303596Y-30323306D02*
X158351215Y-30228067D01*
X158351215Y-30228067D02*
X158351215Y-29370925D01*
X157398834Y-30370925D02*
X157398834Y-29847115D01*
X157398834Y-29847115D02*
X157446453Y-29751877D01*
X157446453Y-29751877D02*
X157541691Y-29704258D01*
X157541691Y-29704258D02*
X157732167Y-29704258D01*
X157732167Y-29704258D02*
X157827405Y-29751877D01*
X157398834Y-30323306D02*
X157494072Y-30370925D01*
X157494072Y-30370925D02*
X157732167Y-30370925D01*
X157732167Y-30370925D02*
X157827405Y-30323306D01*
X157827405Y-30323306D02*
X157875024Y-30228067D01*
X157875024Y-30228067D02*
X157875024Y-30132829D01*
X157875024Y-30132829D02*
X157827405Y-30037591D01*
X157827405Y-30037591D02*
X157732167Y-29989972D01*
X157732167Y-29989972D02*
X157494072Y-29989972D01*
X157494072Y-29989972D02*
X157398834Y-29942353D01*
X156922643Y-30370925D02*
X156922643Y-29370925D01*
X156922643Y-29751877D02*
X156827405Y-29704258D01*
X156827405Y-29704258D02*
X156636929Y-29704258D01*
X156636929Y-29704258D02*
X156541691Y-29751877D01*
X156541691Y-29751877D02*
X156494072Y-29799496D01*
X156494072Y-29799496D02*
X156446453Y-29894734D01*
X156446453Y-29894734D02*
X156446453Y-30180448D01*
X156446453Y-30180448D02*
X156494072Y-30275686D01*
X156494072Y-30275686D02*
X156541691Y-30323306D01*
X156541691Y-30323306D02*
X156636929Y-30370925D01*
X156636929Y-30370925D02*
X156827405Y-30370925D01*
X156827405Y-30370925D02*
X156922643Y-30323306D01*
X156017881Y-30275686D02*
X155970262Y-30323306D01*
X155970262Y-30323306D02*
X156017881Y-30370925D01*
X156017881Y-30370925D02*
X156065500Y-30323306D01*
X156065500Y-30323306D02*
X156017881Y-30275686D01*
X156017881Y-30275686D02*
X156017881Y-30370925D01*
X155113120Y-30323306D02*
X155208358Y-30370925D01*
X155208358Y-30370925D02*
X155398834Y-30370925D01*
X155398834Y-30370925D02*
X155494072Y-30323306D01*
X155494072Y-30323306D02*
X155541691Y-30275686D01*
X155541691Y-30275686D02*
X155589310Y-30180448D01*
X155589310Y-30180448D02*
X155589310Y-29894734D01*
X155589310Y-29894734D02*
X155541691Y-29799496D01*
X155541691Y-29799496D02*
X155494072Y-29751877D01*
X155494072Y-29751877D02*
X155398834Y-29704258D01*
X155398834Y-29704258D02*
X155208358Y-29704258D01*
X155208358Y-29704258D02*
X155113120Y-29751877D01*
X154541691Y-30370925D02*
X154636929Y-30323306D01*
X154636929Y-30323306D02*
X154684548Y-30275686D01*
X154684548Y-30275686D02*
X154732167Y-30180448D01*
X154732167Y-30180448D02*
X154732167Y-29894734D01*
X154732167Y-29894734D02*
X154684548Y-29799496D01*
X154684548Y-29799496D02*
X154636929Y-29751877D01*
X154636929Y-29751877D02*
X154541691Y-29704258D01*
X154541691Y-29704258D02*
X154398834Y-29704258D01*
X154398834Y-29704258D02*
X154303596Y-29751877D01*
X154303596Y-29751877D02*
X154255977Y-29799496D01*
X154255977Y-29799496D02*
X154208358Y-29894734D01*
X154208358Y-29894734D02*
X154208358Y-30180448D01*
X154208358Y-30180448D02*
X154255977Y-30275686D01*
X154255977Y-30275686D02*
X154303596Y-30323306D01*
X154303596Y-30323306D02*
X154398834Y-30370925D01*
X154398834Y-30370925D02*
X154541691Y-30370925D01*
X153779786Y-30370925D02*
X153779786Y-29704258D01*
X153779786Y-29799496D02*
X153732167Y-29751877D01*
X153732167Y-29751877D02*
X153636929Y-29704258D01*
X153636929Y-29704258D02*
X153494072Y-29704258D01*
X153494072Y-29704258D02*
X153398834Y-29751877D01*
X153398834Y-29751877D02*
X153351215Y-29847115D01*
X153351215Y-29847115D02*
X153351215Y-30370925D01*
X153351215Y-29847115D02*
X153303596Y-29751877D01*
X153303596Y-29751877D02*
X153208358Y-29704258D01*
X153208358Y-29704258D02*
X153065501Y-29704258D01*
X153065501Y-29704258D02*
X152970262Y-29751877D01*
X152970262Y-29751877D02*
X152922643Y-29847115D01*
X152922643Y-29847115D02*
X152922643Y-30370925D01*
X167779787Y-31314202D02*
X167589311Y-31980869D01*
X167589311Y-31980869D02*
X167398835Y-31504678D01*
X167398835Y-31504678D02*
X167208359Y-31980869D01*
X167208359Y-31980869D02*
X167017883Y-31314202D01*
X166732168Y-31314202D02*
X166541692Y-31980869D01*
X166541692Y-31980869D02*
X166351216Y-31504678D01*
X166351216Y-31504678D02*
X166160740Y-31980869D01*
X166160740Y-31980869D02*
X165970264Y-31314202D01*
X165684549Y-31314202D02*
X165494073Y-31980869D01*
X165494073Y-31980869D02*
X165303597Y-31504678D01*
X165303597Y-31504678D02*
X165113121Y-31980869D01*
X165113121Y-31980869D02*
X164922645Y-31314202D01*
X164541692Y-31885630D02*
X164494073Y-31933250D01*
X164494073Y-31933250D02*
X164541692Y-31980869D01*
X164541692Y-31980869D02*
X164589311Y-31933250D01*
X164589311Y-31933250D02*
X164541692Y-31885630D01*
X164541692Y-31885630D02*
X164541692Y-31980869D01*
X164113121Y-31933250D02*
X164017883Y-31980869D01*
X164017883Y-31980869D02*
X163827407Y-31980869D01*
X163827407Y-31980869D02*
X163732169Y-31933250D01*
X163732169Y-31933250D02*
X163684550Y-31838011D01*
X163684550Y-31838011D02*
X163684550Y-31790392D01*
X163684550Y-31790392D02*
X163732169Y-31695154D01*
X163732169Y-31695154D02*
X163827407Y-31647535D01*
X163827407Y-31647535D02*
X163970264Y-31647535D01*
X163970264Y-31647535D02*
X164065502Y-31599916D01*
X164065502Y-31599916D02*
X164113121Y-31504678D01*
X164113121Y-31504678D02*
X164113121Y-31457059D01*
X164113121Y-31457059D02*
X164065502Y-31361821D01*
X164065502Y-31361821D02*
X163970264Y-31314202D01*
X163970264Y-31314202D02*
X163827407Y-31314202D01*
X163827407Y-31314202D02*
X163732169Y-31361821D01*
X162827407Y-31980869D02*
X162827407Y-31457059D01*
X162827407Y-31457059D02*
X162875026Y-31361821D01*
X162875026Y-31361821D02*
X162970264Y-31314202D01*
X162970264Y-31314202D02*
X163160740Y-31314202D01*
X163160740Y-31314202D02*
X163255978Y-31361821D01*
X162827407Y-31933250D02*
X162922645Y-31980869D01*
X162922645Y-31980869D02*
X163160740Y-31980869D01*
X163160740Y-31980869D02*
X163255978Y-31933250D01*
X163255978Y-31933250D02*
X163303597Y-31838011D01*
X163303597Y-31838011D02*
X163303597Y-31742773D01*
X163303597Y-31742773D02*
X163255978Y-31647535D01*
X163255978Y-31647535D02*
X163160740Y-31599916D01*
X163160740Y-31599916D02*
X162922645Y-31599916D01*
X162922645Y-31599916D02*
X162827407Y-31552297D01*
X162398835Y-31933250D02*
X162303597Y-31980869D01*
X162303597Y-31980869D02*
X162113121Y-31980869D01*
X162113121Y-31980869D02*
X162017883Y-31933250D01*
X162017883Y-31933250D02*
X161970264Y-31838011D01*
X161970264Y-31838011D02*
X161970264Y-31790392D01*
X161970264Y-31790392D02*
X162017883Y-31695154D01*
X162017883Y-31695154D02*
X162113121Y-31647535D01*
X162113121Y-31647535D02*
X162255978Y-31647535D01*
X162255978Y-31647535D02*
X162351216Y-31599916D01*
X162351216Y-31599916D02*
X162398835Y-31504678D01*
X162398835Y-31504678D02*
X162398835Y-31457059D01*
X162398835Y-31457059D02*
X162351216Y-31361821D01*
X162351216Y-31361821D02*
X162255978Y-31314202D01*
X162255978Y-31314202D02*
X162113121Y-31314202D01*
X162113121Y-31314202D02*
X162017883Y-31361821D01*
X161541692Y-31980869D02*
X161541692Y-30980869D01*
X161446454Y-31599916D02*
X161160740Y-31980869D01*
X161160740Y-31314202D02*
X161541692Y-31695154D01*
X160875025Y-31314202D02*
X160494073Y-31314202D01*
X160732168Y-30980869D02*
X160732168Y-31838011D01*
X160732168Y-31838011D02*
X160684549Y-31933250D01*
X160684549Y-31933250D02*
X160589311Y-31980869D01*
X160589311Y-31980869D02*
X160494073Y-31980869D01*
X159779787Y-31933250D02*
X159875025Y-31980869D01*
X159875025Y-31980869D02*
X160065501Y-31980869D01*
X160065501Y-31980869D02*
X160160739Y-31933250D01*
X160160739Y-31933250D02*
X160208358Y-31838011D01*
X160208358Y-31838011D02*
X160208358Y-31457059D01*
X160208358Y-31457059D02*
X160160739Y-31361821D01*
X160160739Y-31361821D02*
X160065501Y-31314202D01*
X160065501Y-31314202D02*
X159875025Y-31314202D01*
X159875025Y-31314202D02*
X159779787Y-31361821D01*
X159779787Y-31361821D02*
X159732168Y-31457059D01*
X159732168Y-31457059D02*
X159732168Y-31552297D01*
X159732168Y-31552297D02*
X160208358Y-31647535D01*
X158875025Y-31933250D02*
X158970263Y-31980869D01*
X158970263Y-31980869D02*
X159160739Y-31980869D01*
X159160739Y-31980869D02*
X159255977Y-31933250D01*
X159255977Y-31933250D02*
X159303596Y-31885630D01*
X159303596Y-31885630D02*
X159351215Y-31790392D01*
X159351215Y-31790392D02*
X159351215Y-31504678D01*
X159351215Y-31504678D02*
X159303596Y-31409440D01*
X159303596Y-31409440D02*
X159255977Y-31361821D01*
X159255977Y-31361821D02*
X159160739Y-31314202D01*
X159160739Y-31314202D02*
X158970263Y-31314202D01*
X158970263Y-31314202D02*
X158875025Y-31361821D01*
X158446453Y-31980869D02*
X158446453Y-30980869D01*
X158017882Y-31980869D02*
X158017882Y-31457059D01*
X158017882Y-31457059D02*
X158065501Y-31361821D01*
X158065501Y-31361821D02*
X158160739Y-31314202D01*
X158160739Y-31314202D02*
X158303596Y-31314202D01*
X158303596Y-31314202D02*
X158398834Y-31361821D01*
X158398834Y-31361821D02*
X158446453Y-31409440D01*
X157398834Y-31980869D02*
X157494072Y-31933250D01*
X157494072Y-31933250D02*
X157541691Y-31838011D01*
X157541691Y-31838011D02*
X157541691Y-30980869D01*
X156589310Y-31980869D02*
X156589310Y-31457059D01*
X156589310Y-31457059D02*
X156636929Y-31361821D01*
X156636929Y-31361821D02*
X156732167Y-31314202D01*
X156732167Y-31314202D02*
X156922643Y-31314202D01*
X156922643Y-31314202D02*
X157017881Y-31361821D01*
X156589310Y-31933250D02*
X156684548Y-31980869D01*
X156684548Y-31980869D02*
X156922643Y-31980869D01*
X156922643Y-31980869D02*
X157017881Y-31933250D01*
X157017881Y-31933250D02*
X157065500Y-31838011D01*
X157065500Y-31838011D02*
X157065500Y-31742773D01*
X157065500Y-31742773D02*
X157017881Y-31647535D01*
X157017881Y-31647535D02*
X156922643Y-31599916D01*
X156922643Y-31599916D02*
X156684548Y-31599916D01*
X156684548Y-31599916D02*
X156589310Y-31552297D01*
X156113119Y-31980869D02*
X156113119Y-30980869D01*
X156113119Y-31361821D02*
X156017881Y-31314202D01*
X156017881Y-31314202D02*
X155827405Y-31314202D01*
X155827405Y-31314202D02*
X155732167Y-31361821D01*
X155732167Y-31361821D02*
X155684548Y-31409440D01*
X155684548Y-31409440D02*
X155636929Y-31504678D01*
X155636929Y-31504678D02*
X155636929Y-31790392D01*
X155636929Y-31790392D02*
X155684548Y-31885630D01*
X155684548Y-31885630D02*
X155732167Y-31933250D01*
X155732167Y-31933250D02*
X155827405Y-31980869D01*
X155827405Y-31980869D02*
X156017881Y-31980869D01*
X156017881Y-31980869D02*
X156113119Y-31933250D01*
X155208357Y-31885630D02*
X155160738Y-31933250D01*
X155160738Y-31933250D02*
X155208357Y-31980869D01*
X155208357Y-31980869D02*
X155255976Y-31933250D01*
X155255976Y-31933250D02*
X155208357Y-31885630D01*
X155208357Y-31885630D02*
X155208357Y-31980869D01*
X154303596Y-31933250D02*
X154398834Y-31980869D01*
X154398834Y-31980869D02*
X154589310Y-31980869D01*
X154589310Y-31980869D02*
X154684548Y-31933250D01*
X154684548Y-31933250D02*
X154732167Y-31885630D01*
X154732167Y-31885630D02*
X154779786Y-31790392D01*
X154779786Y-31790392D02*
X154779786Y-31504678D01*
X154779786Y-31504678D02*
X154732167Y-31409440D01*
X154732167Y-31409440D02*
X154684548Y-31361821D01*
X154684548Y-31361821D02*
X154589310Y-31314202D01*
X154589310Y-31314202D02*
X154398834Y-31314202D01*
X154398834Y-31314202D02*
X154303596Y-31361821D01*
X153732167Y-31980869D02*
X153827405Y-31933250D01*
X153827405Y-31933250D02*
X153875024Y-31885630D01*
X153875024Y-31885630D02*
X153922643Y-31790392D01*
X153922643Y-31790392D02*
X153922643Y-31504678D01*
X153922643Y-31504678D02*
X153875024Y-31409440D01*
X153875024Y-31409440D02*
X153827405Y-31361821D01*
X153827405Y-31361821D02*
X153732167Y-31314202D01*
X153732167Y-31314202D02*
X153589310Y-31314202D01*
X153589310Y-31314202D02*
X153494072Y-31361821D01*
X153494072Y-31361821D02*
X153446453Y-31409440D01*
X153446453Y-31409440D02*
X153398834Y-31504678D01*
X153398834Y-31504678D02*
X153398834Y-31790392D01*
X153398834Y-31790392D02*
X153446453Y-31885630D01*
X153446453Y-31885630D02*
X153494072Y-31933250D01*
X153494072Y-31933250D02*
X153589310Y-31980869D01*
X153589310Y-31980869D02*
X153732167Y-31980869D01*
X152970262Y-31980869D02*
X152970262Y-31314202D01*
X152970262Y-31409440D02*
X152922643Y-31361821D01*
X152922643Y-31361821D02*
X152827405Y-31314202D01*
X152827405Y-31314202D02*
X152684548Y-31314202D01*
X152684548Y-31314202D02*
X152589310Y-31361821D01*
X152589310Y-31361821D02*
X152541691Y-31457059D01*
X152541691Y-31457059D02*
X152541691Y-31980869D01*
X152541691Y-31457059D02*
X152494072Y-31361821D01*
X152494072Y-31361821D02*
X152398834Y-31314202D01*
X152398834Y-31314202D02*
X152255977Y-31314202D01*
X152255977Y-31314202D02*
X152160738Y-31361821D01*
X152160738Y-31361821D02*
X152113119Y-31457059D01*
X152113119Y-31457059D02*
X152113119Y-31980869D01*
D11*
X79374666Y-44192080D02*
X79422285Y-44239700D01*
X79422285Y-44239700D02*
X79565142Y-44287319D01*
X79565142Y-44287319D02*
X79660380Y-44287319D01*
X79660380Y-44287319D02*
X79803237Y-44239700D01*
X79803237Y-44239700D02*
X79898475Y-44144461D01*
X79898475Y-44144461D02*
X79946094Y-44049223D01*
X79946094Y-44049223D02*
X79993713Y-43858747D01*
X79993713Y-43858747D02*
X79993713Y-43715890D01*
X79993713Y-43715890D02*
X79946094Y-43525414D01*
X79946094Y-43525414D02*
X79898475Y-43430176D01*
X79898475Y-43430176D02*
X79803237Y-43334938D01*
X79803237Y-43334938D02*
X79660380Y-43287319D01*
X79660380Y-43287319D02*
X79565142Y-43287319D01*
X79565142Y-43287319D02*
X79422285Y-43334938D01*
X79422285Y-43334938D02*
X79374666Y-43382557D01*
X78422285Y-44287319D02*
X78993713Y-44287319D01*
X78707999Y-44287319D02*
X78707999Y-43287319D01*
X78707999Y-43287319D02*
X78803237Y-43430176D01*
X78803237Y-43430176D02*
X78898475Y-43525414D01*
X78898475Y-43525414D02*
X78993713Y-43573033D01*
X89742857Y-40303080D02*
X89790476Y-40350700D01*
X89790476Y-40350700D02*
X89933333Y-40398319D01*
X89933333Y-40398319D02*
X90028571Y-40398319D01*
X90028571Y-40398319D02*
X90171428Y-40350700D01*
X90171428Y-40350700D02*
X90266666Y-40255461D01*
X90266666Y-40255461D02*
X90314285Y-40160223D01*
X90314285Y-40160223D02*
X90361904Y-39969747D01*
X90361904Y-39969747D02*
X90361904Y-39826890D01*
X90361904Y-39826890D02*
X90314285Y-39636414D01*
X90314285Y-39636414D02*
X90266666Y-39541176D01*
X90266666Y-39541176D02*
X90171428Y-39445938D01*
X90171428Y-39445938D02*
X90028571Y-39398319D01*
X90028571Y-39398319D02*
X89933333Y-39398319D01*
X89933333Y-39398319D02*
X89790476Y-39445938D01*
X89790476Y-39445938D02*
X89742857Y-39493557D01*
X88790476Y-40398319D02*
X89361904Y-40398319D01*
X89076190Y-40398319D02*
X89076190Y-39398319D01*
X89076190Y-39398319D02*
X89171428Y-39541176D01*
X89171428Y-39541176D02*
X89266666Y-39636414D01*
X89266666Y-39636414D02*
X89361904Y-39684033D01*
X87933333Y-39731652D02*
X87933333Y-40398319D01*
X88171428Y-39350700D02*
X88409523Y-40064985D01*
X88409523Y-40064985D02*
X87790476Y-40064985D01*
X79437666Y-38432080D02*
X79485285Y-38479700D01*
X79485285Y-38479700D02*
X79628142Y-38527319D01*
X79628142Y-38527319D02*
X79723380Y-38527319D01*
X79723380Y-38527319D02*
X79866237Y-38479700D01*
X79866237Y-38479700D02*
X79961475Y-38384461D01*
X79961475Y-38384461D02*
X80009094Y-38289223D01*
X80009094Y-38289223D02*
X80056713Y-38098747D01*
X80056713Y-38098747D02*
X80056713Y-37955890D01*
X80056713Y-37955890D02*
X80009094Y-37765414D01*
X80009094Y-37765414D02*
X79961475Y-37670176D01*
X79961475Y-37670176D02*
X79866237Y-37574938D01*
X79866237Y-37574938D02*
X79723380Y-37527319D01*
X79723380Y-37527319D02*
X79628142Y-37527319D01*
X79628142Y-37527319D02*
X79485285Y-37574938D01*
X79485285Y-37574938D02*
X79437666Y-37622557D01*
X78532904Y-37527319D02*
X79009094Y-37527319D01*
X79009094Y-37527319D02*
X79056713Y-38003509D01*
X79056713Y-38003509D02*
X79009094Y-37955890D01*
X79009094Y-37955890D02*
X78913856Y-37908271D01*
X78913856Y-37908271D02*
X78675761Y-37908271D01*
X78675761Y-37908271D02*
X78580523Y-37955890D01*
X78580523Y-37955890D02*
X78532904Y-38003509D01*
X78532904Y-38003509D02*
X78485285Y-38098747D01*
X78485285Y-38098747D02*
X78485285Y-38336842D01*
X78485285Y-38336842D02*
X78532904Y-38432080D01*
X78532904Y-38432080D02*
X78580523Y-38479700D01*
X78580523Y-38479700D02*
X78675761Y-38527319D01*
X78675761Y-38527319D02*
X78913856Y-38527319D01*
X78913856Y-38527319D02*
X79009094Y-38479700D01*
X79009094Y-38479700D02*
X79056713Y-38432080D01*
X151728094Y-70652819D02*
X151728094Y-71462342D01*
X151728094Y-71462342D02*
X151680475Y-71557580D01*
X151680475Y-71557580D02*
X151632856Y-71605200D01*
X151632856Y-71605200D02*
X151537618Y-71652819D01*
X151537618Y-71652819D02*
X151347142Y-71652819D01*
X151347142Y-71652819D02*
X151251904Y-71605200D01*
X151251904Y-71605200D02*
X151204285Y-71557580D01*
X151204285Y-71557580D02*
X151156666Y-71462342D01*
X151156666Y-71462342D02*
X151156666Y-70652819D01*
X150156666Y-71652819D02*
X150728094Y-71652819D01*
X150442380Y-71652819D02*
X150442380Y-70652819D01*
X150442380Y-70652819D02*
X150537618Y-70795676D01*
X150537618Y-70795676D02*
X150632856Y-70890914D01*
X150632856Y-70890914D02*
X150728094Y-70938533D01*
X149537618Y-70652819D02*
X149442380Y-70652819D01*
X149442380Y-70652819D02*
X149347142Y-70700438D01*
X149347142Y-70700438D02*
X149299523Y-70748057D01*
X149299523Y-70748057D02*
X149251904Y-70843295D01*
X149251904Y-70843295D02*
X149204285Y-71033771D01*
X149204285Y-71033771D02*
X149204285Y-71271866D01*
X149204285Y-71271866D02*
X149251904Y-71462342D01*
X149251904Y-71462342D02*
X149299523Y-71557580D01*
X149299523Y-71557580D02*
X149347142Y-71605200D01*
X149347142Y-71605200D02*
X149442380Y-71652819D01*
X149442380Y-71652819D02*
X149537618Y-71652819D01*
X149537618Y-71652819D02*
X149632856Y-71605200D01*
X149632856Y-71605200D02*
X149680475Y-71557580D01*
X149680475Y-71557580D02*
X149728094Y-71462342D01*
X149728094Y-71462342D02*
X149775713Y-71271866D01*
X149775713Y-71271866D02*
X149775713Y-71033771D01*
X149775713Y-71033771D02*
X149728094Y-70843295D01*
X149728094Y-70843295D02*
X149680475Y-70748057D01*
X149680475Y-70748057D02*
X149632856Y-70700438D01*
X149632856Y-70700438D02*
X149537618Y-70652819D01*
X79541666Y-40190080D02*
X79589285Y-40237700D01*
X79589285Y-40237700D02*
X79732142Y-40285319D01*
X79732142Y-40285319D02*
X79827380Y-40285319D01*
X79827380Y-40285319D02*
X79970237Y-40237700D01*
X79970237Y-40237700D02*
X80065475Y-40142461D01*
X80065475Y-40142461D02*
X80113094Y-40047223D01*
X80113094Y-40047223D02*
X80160713Y-39856747D01*
X80160713Y-39856747D02*
X80160713Y-39713890D01*
X80160713Y-39713890D02*
X80113094Y-39523414D01*
X80113094Y-39523414D02*
X80065475Y-39428176D01*
X80065475Y-39428176D02*
X79970237Y-39332938D01*
X79970237Y-39332938D02*
X79827380Y-39285319D01*
X79827380Y-39285319D02*
X79732142Y-39285319D01*
X79732142Y-39285319D02*
X79589285Y-39332938D01*
X79589285Y-39332938D02*
X79541666Y-39380557D01*
X78684523Y-39285319D02*
X78874999Y-39285319D01*
X78874999Y-39285319D02*
X78970237Y-39332938D01*
X78970237Y-39332938D02*
X79017856Y-39380557D01*
X79017856Y-39380557D02*
X79113094Y-39523414D01*
X79113094Y-39523414D02*
X79160713Y-39713890D01*
X79160713Y-39713890D02*
X79160713Y-40094842D01*
X79160713Y-40094842D02*
X79113094Y-40190080D01*
X79113094Y-40190080D02*
X79065475Y-40237700D01*
X79065475Y-40237700D02*
X78970237Y-40285319D01*
X78970237Y-40285319D02*
X78779761Y-40285319D01*
X78779761Y-40285319D02*
X78684523Y-40237700D01*
X78684523Y-40237700D02*
X78636904Y-40190080D01*
X78636904Y-40190080D02*
X78589285Y-40094842D01*
X78589285Y-40094842D02*
X78589285Y-39856747D01*
X78589285Y-39856747D02*
X78636904Y-39761509D01*
X78636904Y-39761509D02*
X78684523Y-39713890D01*
X78684523Y-39713890D02*
X78779761Y-39666271D01*
X78779761Y-39666271D02*
X78970237Y-39666271D01*
X78970237Y-39666271D02*
X79065475Y-39713890D01*
X79065475Y-39713890D02*
X79113094Y-39761509D01*
X79113094Y-39761509D02*
X79160713Y-39856747D01*
X75588094Y-70646819D02*
X75588094Y-71456342D01*
X75588094Y-71456342D02*
X75540475Y-71551580D01*
X75540475Y-71551580D02*
X75492856Y-71599200D01*
X75492856Y-71599200D02*
X75397618Y-71646819D01*
X75397618Y-71646819D02*
X75207142Y-71646819D01*
X75207142Y-71646819D02*
X75111904Y-71599200D01*
X75111904Y-71599200D02*
X75064285Y-71551580D01*
X75064285Y-71551580D02*
X75016666Y-71456342D01*
X75016666Y-71456342D02*
X75016666Y-70646819D01*
X74016666Y-71646819D02*
X74588094Y-71646819D01*
X74302380Y-71646819D02*
X74302380Y-70646819D01*
X74302380Y-70646819D02*
X74397618Y-70789676D01*
X74397618Y-70789676D02*
X74492856Y-70884914D01*
X74492856Y-70884914D02*
X74588094Y-70932533D01*
X73064285Y-71646819D02*
X73635713Y-71646819D01*
X73349999Y-71646819D02*
X73349999Y-70646819D01*
X73349999Y-70646819D02*
X73445237Y-70789676D01*
X73445237Y-70789676D02*
X73540475Y-70884914D01*
X73540475Y-70884914D02*
X73635713Y-70932533D01*
X151306523Y-82803819D02*
X151306523Y-83518104D01*
X151306523Y-83518104D02*
X151354142Y-83660961D01*
X151354142Y-83660961D02*
X151449380Y-83756200D01*
X151449380Y-83756200D02*
X151592237Y-83803819D01*
X151592237Y-83803819D02*
X151687475Y-83803819D01*
X150306523Y-83803819D02*
X150877951Y-83803819D01*
X150592237Y-83803819D02*
X150592237Y-82803819D01*
X150592237Y-82803819D02*
X150687475Y-82946676D01*
X150687475Y-82946676D02*
X150782713Y-83041914D01*
X150782713Y-83041914D02*
X150877951Y-83089533D01*
X149401761Y-82803819D02*
X149877951Y-82803819D01*
X149877951Y-82803819D02*
X149925570Y-83280009D01*
X149925570Y-83280009D02*
X149877951Y-83232390D01*
X149877951Y-83232390D02*
X149782713Y-83184771D01*
X149782713Y-83184771D02*
X149544618Y-83184771D01*
X149544618Y-83184771D02*
X149449380Y-83232390D01*
X149449380Y-83232390D02*
X149401761Y-83280009D01*
X149401761Y-83280009D02*
X149354142Y-83375247D01*
X149354142Y-83375247D02*
X149354142Y-83613342D01*
X149354142Y-83613342D02*
X149401761Y-83708580D01*
X149401761Y-83708580D02*
X149449380Y-83756200D01*
X149449380Y-83756200D02*
X149544618Y-83803819D01*
X149544618Y-83803819D02*
X149782713Y-83803819D01*
X149782713Y-83803819D02*
X149877951Y-83756200D01*
X149877951Y-83756200D02*
X149925570Y-83708580D01*
X79400666Y-36739080D02*
X79448285Y-36786700D01*
X79448285Y-36786700D02*
X79591142Y-36834319D01*
X79591142Y-36834319D02*
X79686380Y-36834319D01*
X79686380Y-36834319D02*
X79829237Y-36786700D01*
X79829237Y-36786700D02*
X79924475Y-36691461D01*
X79924475Y-36691461D02*
X79972094Y-36596223D01*
X79972094Y-36596223D02*
X80019713Y-36405747D01*
X80019713Y-36405747D02*
X80019713Y-36262890D01*
X80019713Y-36262890D02*
X79972094Y-36072414D01*
X79972094Y-36072414D02*
X79924475Y-35977176D01*
X79924475Y-35977176D02*
X79829237Y-35881938D01*
X79829237Y-35881938D02*
X79686380Y-35834319D01*
X79686380Y-35834319D02*
X79591142Y-35834319D01*
X79591142Y-35834319D02*
X79448285Y-35881938D01*
X79448285Y-35881938D02*
X79400666Y-35929557D01*
X79067332Y-35834319D02*
X78400666Y-35834319D01*
X78400666Y-35834319D02*
X78829237Y-36834319D01*
X75963666Y-39923580D02*
X76011285Y-39971200D01*
X76011285Y-39971200D02*
X76154142Y-40018819D01*
X76154142Y-40018819D02*
X76249380Y-40018819D01*
X76249380Y-40018819D02*
X76392237Y-39971200D01*
X76392237Y-39971200D02*
X76487475Y-39875961D01*
X76487475Y-39875961D02*
X76535094Y-39780723D01*
X76535094Y-39780723D02*
X76582713Y-39590247D01*
X76582713Y-39590247D02*
X76582713Y-39447390D01*
X76582713Y-39447390D02*
X76535094Y-39256914D01*
X76535094Y-39256914D02*
X76487475Y-39161676D01*
X76487475Y-39161676D02*
X76392237Y-39066438D01*
X76392237Y-39066438D02*
X76249380Y-39018819D01*
X76249380Y-39018819D02*
X76154142Y-39018819D01*
X76154142Y-39018819D02*
X76011285Y-39066438D01*
X76011285Y-39066438D02*
X75963666Y-39114057D01*
X75582713Y-39114057D02*
X75535094Y-39066438D01*
X75535094Y-39066438D02*
X75439856Y-39018819D01*
X75439856Y-39018819D02*
X75201761Y-39018819D01*
X75201761Y-39018819D02*
X75106523Y-39066438D01*
X75106523Y-39066438D02*
X75058904Y-39114057D01*
X75058904Y-39114057D02*
X75011285Y-39209295D01*
X75011285Y-39209295D02*
X75011285Y-39304533D01*
X75011285Y-39304533D02*
X75058904Y-39447390D01*
X75058904Y-39447390D02*
X75630332Y-40018819D01*
X75630332Y-40018819D02*
X75011285Y-40018819D01*
X101424094Y-70645819D02*
X101424094Y-71455342D01*
X101424094Y-71455342D02*
X101376475Y-71550580D01*
X101376475Y-71550580D02*
X101328856Y-71598200D01*
X101328856Y-71598200D02*
X101233618Y-71645819D01*
X101233618Y-71645819D02*
X101043142Y-71645819D01*
X101043142Y-71645819D02*
X100947904Y-71598200D01*
X100947904Y-71598200D02*
X100900285Y-71550580D01*
X100900285Y-71550580D02*
X100852666Y-71455342D01*
X100852666Y-71455342D02*
X100852666Y-70645819D01*
X99852666Y-71645819D02*
X100424094Y-71645819D01*
X100138380Y-71645819D02*
X100138380Y-70645819D01*
X100138380Y-70645819D02*
X100233618Y-70788676D01*
X100233618Y-70788676D02*
X100328856Y-70883914D01*
X100328856Y-70883914D02*
X100424094Y-70931533D01*
X99471713Y-70741057D02*
X99424094Y-70693438D01*
X99424094Y-70693438D02*
X99328856Y-70645819D01*
X99328856Y-70645819D02*
X99090761Y-70645819D01*
X99090761Y-70645819D02*
X98995523Y-70693438D01*
X98995523Y-70693438D02*
X98947904Y-70741057D01*
X98947904Y-70741057D02*
X98900285Y-70836295D01*
X98900285Y-70836295D02*
X98900285Y-70931533D01*
X98900285Y-70931533D02*
X98947904Y-71074390D01*
X98947904Y-71074390D02*
X99519332Y-71645819D01*
X99519332Y-71645819D02*
X98900285Y-71645819D01*
X50191523Y-82808819D02*
X50191523Y-83523104D01*
X50191523Y-83523104D02*
X50239142Y-83665961D01*
X50239142Y-83665961D02*
X50334380Y-83761200D01*
X50334380Y-83761200D02*
X50477237Y-83808819D01*
X50477237Y-83808819D02*
X50572475Y-83808819D01*
X49191523Y-83808819D02*
X49762951Y-83808819D01*
X49477237Y-83808819D02*
X49477237Y-82808819D01*
X49477237Y-82808819D02*
X49572475Y-82951676D01*
X49572475Y-82951676D02*
X49667713Y-83046914D01*
X49667713Y-83046914D02*
X49762951Y-83094533D01*
X48334380Y-82808819D02*
X48524856Y-82808819D01*
X48524856Y-82808819D02*
X48620094Y-82856438D01*
X48620094Y-82856438D02*
X48667713Y-82904057D01*
X48667713Y-82904057D02*
X48762951Y-83046914D01*
X48762951Y-83046914D02*
X48810570Y-83237390D01*
X48810570Y-83237390D02*
X48810570Y-83618342D01*
X48810570Y-83618342D02*
X48762951Y-83713580D01*
X48762951Y-83713580D02*
X48715332Y-83761200D01*
X48715332Y-83761200D02*
X48620094Y-83808819D01*
X48620094Y-83808819D02*
X48429618Y-83808819D01*
X48429618Y-83808819D02*
X48334380Y-83761200D01*
X48334380Y-83761200D02*
X48286761Y-83713580D01*
X48286761Y-83713580D02*
X48239142Y-83618342D01*
X48239142Y-83618342D02*
X48239142Y-83380247D01*
X48239142Y-83380247D02*
X48286761Y-83285009D01*
X48286761Y-83285009D02*
X48334380Y-83237390D01*
X48334380Y-83237390D02*
X48429618Y-83189771D01*
X48429618Y-83189771D02*
X48620094Y-83189771D01*
X48620094Y-83189771D02*
X48715332Y-83237390D01*
X48715332Y-83237390D02*
X48762951Y-83285009D01*
X48762951Y-83285009D02*
X48810570Y-83380247D01*
X101106523Y-82808819D02*
X101106523Y-83523104D01*
X101106523Y-83523104D02*
X101154142Y-83665961D01*
X101154142Y-83665961D02*
X101249380Y-83761200D01*
X101249380Y-83761200D02*
X101392237Y-83808819D01*
X101392237Y-83808819D02*
X101487475Y-83808819D01*
X100106523Y-83808819D02*
X100677951Y-83808819D01*
X100392237Y-83808819D02*
X100392237Y-82808819D01*
X100392237Y-82808819D02*
X100487475Y-82951676D01*
X100487475Y-82951676D02*
X100582713Y-83046914D01*
X100582713Y-83046914D02*
X100677951Y-83094533D01*
X99535094Y-83237390D02*
X99630332Y-83189771D01*
X99630332Y-83189771D02*
X99677951Y-83142152D01*
X99677951Y-83142152D02*
X99725570Y-83046914D01*
X99725570Y-83046914D02*
X99725570Y-82999295D01*
X99725570Y-82999295D02*
X99677951Y-82904057D01*
X99677951Y-82904057D02*
X99630332Y-82856438D01*
X99630332Y-82856438D02*
X99535094Y-82808819D01*
X99535094Y-82808819D02*
X99344618Y-82808819D01*
X99344618Y-82808819D02*
X99249380Y-82856438D01*
X99249380Y-82856438D02*
X99201761Y-82904057D01*
X99201761Y-82904057D02*
X99154142Y-82999295D01*
X99154142Y-82999295D02*
X99154142Y-83046914D01*
X99154142Y-83046914D02*
X99201761Y-83142152D01*
X99201761Y-83142152D02*
X99249380Y-83189771D01*
X99249380Y-83189771D02*
X99344618Y-83237390D01*
X99344618Y-83237390D02*
X99535094Y-83237390D01*
X99535094Y-83237390D02*
X99630332Y-83285009D01*
X99630332Y-83285009D02*
X99677951Y-83332628D01*
X99677951Y-83332628D02*
X99725570Y-83427866D01*
X99725570Y-83427866D02*
X99725570Y-83618342D01*
X99725570Y-83618342D02*
X99677951Y-83713580D01*
X99677951Y-83713580D02*
X99630332Y-83761200D01*
X99630332Y-83761200D02*
X99535094Y-83808819D01*
X99535094Y-83808819D02*
X99344618Y-83808819D01*
X99344618Y-83808819D02*
X99249380Y-83761200D01*
X99249380Y-83761200D02*
X99201761Y-83713580D01*
X99201761Y-83713580D02*
X99154142Y-83618342D01*
X99154142Y-83618342D02*
X99154142Y-83427866D01*
X99154142Y-83427866D02*
X99201761Y-83332628D01*
X99201761Y-83332628D02*
X99249380Y-83285009D01*
X99249380Y-83285009D02*
X99344618Y-83237390D01*
X93634857Y-71938580D02*
X93682476Y-71986200D01*
X93682476Y-71986200D02*
X93825333Y-72033819D01*
X93825333Y-72033819D02*
X93920571Y-72033819D01*
X93920571Y-72033819D02*
X94063428Y-71986200D01*
X94063428Y-71986200D02*
X94158666Y-71890961D01*
X94158666Y-71890961D02*
X94206285Y-71795723D01*
X94206285Y-71795723D02*
X94253904Y-71605247D01*
X94253904Y-71605247D02*
X94253904Y-71462390D01*
X94253904Y-71462390D02*
X94206285Y-71271914D01*
X94206285Y-71271914D02*
X94158666Y-71176676D01*
X94158666Y-71176676D02*
X94063428Y-71081438D01*
X94063428Y-71081438D02*
X93920571Y-71033819D01*
X93920571Y-71033819D02*
X93825333Y-71033819D01*
X93825333Y-71033819D02*
X93682476Y-71081438D01*
X93682476Y-71081438D02*
X93634857Y-71129057D01*
X93253904Y-71129057D02*
X93206285Y-71081438D01*
X93206285Y-71081438D02*
X93111047Y-71033819D01*
X93111047Y-71033819D02*
X92872952Y-71033819D01*
X92872952Y-71033819D02*
X92777714Y-71081438D01*
X92777714Y-71081438D02*
X92730095Y-71129057D01*
X92730095Y-71129057D02*
X92682476Y-71224295D01*
X92682476Y-71224295D02*
X92682476Y-71319533D01*
X92682476Y-71319533D02*
X92730095Y-71462390D01*
X92730095Y-71462390D02*
X93301523Y-72033819D01*
X93301523Y-72033819D02*
X92682476Y-72033819D01*
X92301523Y-71129057D02*
X92253904Y-71081438D01*
X92253904Y-71081438D02*
X92158666Y-71033819D01*
X92158666Y-71033819D02*
X91920571Y-71033819D01*
X91920571Y-71033819D02*
X91825333Y-71081438D01*
X91825333Y-71081438D02*
X91777714Y-71129057D01*
X91777714Y-71129057D02*
X91730095Y-71224295D01*
X91730095Y-71224295D02*
X91730095Y-71319533D01*
X91730095Y-71319533D02*
X91777714Y-71462390D01*
X91777714Y-71462390D02*
X92349142Y-72033819D01*
X92349142Y-72033819D02*
X91730095Y-72033819D01*
X79387857Y-42178080D02*
X79435476Y-42225700D01*
X79435476Y-42225700D02*
X79578333Y-42273319D01*
X79578333Y-42273319D02*
X79673571Y-42273319D01*
X79673571Y-42273319D02*
X79816428Y-42225700D01*
X79816428Y-42225700D02*
X79911666Y-42130461D01*
X79911666Y-42130461D02*
X79959285Y-42035223D01*
X79959285Y-42035223D02*
X80006904Y-41844747D01*
X80006904Y-41844747D02*
X80006904Y-41701890D01*
X80006904Y-41701890D02*
X79959285Y-41511414D01*
X79959285Y-41511414D02*
X79911666Y-41416176D01*
X79911666Y-41416176D02*
X79816428Y-41320938D01*
X79816428Y-41320938D02*
X79673571Y-41273319D01*
X79673571Y-41273319D02*
X79578333Y-41273319D01*
X79578333Y-41273319D02*
X79435476Y-41320938D01*
X79435476Y-41320938D02*
X79387857Y-41368557D01*
X78435476Y-42273319D02*
X79006904Y-42273319D01*
X78721190Y-42273319D02*
X78721190Y-41273319D01*
X78721190Y-41273319D02*
X78816428Y-41416176D01*
X78816428Y-41416176D02*
X78911666Y-41511414D01*
X78911666Y-41511414D02*
X79006904Y-41559033D01*
X78054523Y-41368557D02*
X78006904Y-41320938D01*
X78006904Y-41320938D02*
X77911666Y-41273319D01*
X77911666Y-41273319D02*
X77673571Y-41273319D01*
X77673571Y-41273319D02*
X77578333Y-41320938D01*
X77578333Y-41320938D02*
X77530714Y-41368557D01*
X77530714Y-41368557D02*
X77483095Y-41463795D01*
X77483095Y-41463795D02*
X77483095Y-41559033D01*
X77483095Y-41559033D02*
X77530714Y-41701890D01*
X77530714Y-41701890D02*
X78102142Y-42273319D01*
X78102142Y-42273319D02*
X77483095Y-42273319D01*
X143922857Y-71865580D02*
X143970476Y-71913200D01*
X143970476Y-71913200D02*
X144113333Y-71960819D01*
X144113333Y-71960819D02*
X144208571Y-71960819D01*
X144208571Y-71960819D02*
X144351428Y-71913200D01*
X144351428Y-71913200D02*
X144446666Y-71817961D01*
X144446666Y-71817961D02*
X144494285Y-71722723D01*
X144494285Y-71722723D02*
X144541904Y-71532247D01*
X144541904Y-71532247D02*
X144541904Y-71389390D01*
X144541904Y-71389390D02*
X144494285Y-71198914D01*
X144494285Y-71198914D02*
X144446666Y-71103676D01*
X144446666Y-71103676D02*
X144351428Y-71008438D01*
X144351428Y-71008438D02*
X144208571Y-70960819D01*
X144208571Y-70960819D02*
X144113333Y-70960819D01*
X144113333Y-70960819D02*
X143970476Y-71008438D01*
X143970476Y-71008438D02*
X143922857Y-71056057D01*
X143541904Y-71056057D02*
X143494285Y-71008438D01*
X143494285Y-71008438D02*
X143399047Y-70960819D01*
X143399047Y-70960819D02*
X143160952Y-70960819D01*
X143160952Y-70960819D02*
X143065714Y-71008438D01*
X143065714Y-71008438D02*
X143018095Y-71056057D01*
X143018095Y-71056057D02*
X142970476Y-71151295D01*
X142970476Y-71151295D02*
X142970476Y-71246533D01*
X142970476Y-71246533D02*
X143018095Y-71389390D01*
X143018095Y-71389390D02*
X143589523Y-71960819D01*
X143589523Y-71960819D02*
X142970476Y-71960819D01*
X142351428Y-70960819D02*
X142256190Y-70960819D01*
X142256190Y-70960819D02*
X142160952Y-71008438D01*
X142160952Y-71008438D02*
X142113333Y-71056057D01*
X142113333Y-71056057D02*
X142065714Y-71151295D01*
X142065714Y-71151295D02*
X142018095Y-71341771D01*
X142018095Y-71341771D02*
X142018095Y-71579866D01*
X142018095Y-71579866D02*
X142065714Y-71770342D01*
X142065714Y-71770342D02*
X142113333Y-71865580D01*
X142113333Y-71865580D02*
X142160952Y-71913200D01*
X142160952Y-71913200D02*
X142256190Y-71960819D01*
X142256190Y-71960819D02*
X142351428Y-71960819D01*
X142351428Y-71960819D02*
X142446666Y-71913200D01*
X142446666Y-71913200D02*
X142494285Y-71865580D01*
X142494285Y-71865580D02*
X142541904Y-71770342D01*
X142541904Y-71770342D02*
X142589523Y-71579866D01*
X142589523Y-71579866D02*
X142589523Y-71341771D01*
X142589523Y-71341771D02*
X142541904Y-71151295D01*
X142541904Y-71151295D02*
X142494285Y-71056057D01*
X142494285Y-71056057D02*
X142446666Y-71008438D01*
X142446666Y-71008438D02*
X142351428Y-70960819D01*
X71577580Y-41806333D02*
X71625200Y-41758714D01*
X71625200Y-41758714D02*
X71672819Y-41615857D01*
X71672819Y-41615857D02*
X71672819Y-41520619D01*
X71672819Y-41520619D02*
X71625200Y-41377762D01*
X71625200Y-41377762D02*
X71529961Y-41282524D01*
X71529961Y-41282524D02*
X71434723Y-41234905D01*
X71434723Y-41234905D02*
X71244247Y-41187286D01*
X71244247Y-41187286D02*
X71101390Y-41187286D01*
X71101390Y-41187286D02*
X70910914Y-41234905D01*
X70910914Y-41234905D02*
X70815676Y-41282524D01*
X70815676Y-41282524D02*
X70720438Y-41377762D01*
X70720438Y-41377762D02*
X70672819Y-41520619D01*
X70672819Y-41520619D02*
X70672819Y-41615857D01*
X70672819Y-41615857D02*
X70720438Y-41758714D01*
X70720438Y-41758714D02*
X70768057Y-41806333D01*
X70672819Y-42139667D02*
X70672819Y-42758714D01*
X70672819Y-42758714D02*
X71053771Y-42425381D01*
X71053771Y-42425381D02*
X71053771Y-42568238D01*
X71053771Y-42568238D02*
X71101390Y-42663476D01*
X71101390Y-42663476D02*
X71149009Y-42711095D01*
X71149009Y-42711095D02*
X71244247Y-42758714D01*
X71244247Y-42758714D02*
X71482342Y-42758714D01*
X71482342Y-42758714D02*
X71577580Y-42711095D01*
X71577580Y-42711095D02*
X71625200Y-42663476D01*
X71625200Y-42663476D02*
X71672819Y-42568238D01*
X71672819Y-42568238D02*
X71672819Y-42282524D01*
X71672819Y-42282524D02*
X71625200Y-42187286D01*
X71625200Y-42187286D02*
X71577580Y-42139667D01*
X74633666Y-49196319D02*
X74966999Y-48720128D01*
X75205094Y-49196319D02*
X75205094Y-48196319D01*
X75205094Y-48196319D02*
X74824142Y-48196319D01*
X74824142Y-48196319D02*
X74728904Y-48243938D01*
X74728904Y-48243938D02*
X74681285Y-48291557D01*
X74681285Y-48291557D02*
X74633666Y-48386795D01*
X74633666Y-48386795D02*
X74633666Y-48529652D01*
X74633666Y-48529652D02*
X74681285Y-48624890D01*
X74681285Y-48624890D02*
X74728904Y-48672509D01*
X74728904Y-48672509D02*
X74824142Y-48720128D01*
X74824142Y-48720128D02*
X75205094Y-48720128D01*
X74252713Y-48291557D02*
X74205094Y-48243938D01*
X74205094Y-48243938D02*
X74109856Y-48196319D01*
X74109856Y-48196319D02*
X73871761Y-48196319D01*
X73871761Y-48196319D02*
X73776523Y-48243938D01*
X73776523Y-48243938D02*
X73728904Y-48291557D01*
X73728904Y-48291557D02*
X73681285Y-48386795D01*
X73681285Y-48386795D02*
X73681285Y-48482033D01*
X73681285Y-48482033D02*
X73728904Y-48624890D01*
X73728904Y-48624890D02*
X74300332Y-49196319D01*
X74300332Y-49196319D02*
X73681285Y-49196319D01*
X118981857Y-71903580D02*
X119029476Y-71951200D01*
X119029476Y-71951200D02*
X119172333Y-71998819D01*
X119172333Y-71998819D02*
X119267571Y-71998819D01*
X119267571Y-71998819D02*
X119410428Y-71951200D01*
X119410428Y-71951200D02*
X119505666Y-71855961D01*
X119505666Y-71855961D02*
X119553285Y-71760723D01*
X119553285Y-71760723D02*
X119600904Y-71570247D01*
X119600904Y-71570247D02*
X119600904Y-71427390D01*
X119600904Y-71427390D02*
X119553285Y-71236914D01*
X119553285Y-71236914D02*
X119505666Y-71141676D01*
X119505666Y-71141676D02*
X119410428Y-71046438D01*
X119410428Y-71046438D02*
X119267571Y-70998819D01*
X119267571Y-70998819D02*
X119172333Y-70998819D01*
X119172333Y-70998819D02*
X119029476Y-71046438D01*
X119029476Y-71046438D02*
X118981857Y-71094057D01*
X118600904Y-71094057D02*
X118553285Y-71046438D01*
X118553285Y-71046438D02*
X118458047Y-70998819D01*
X118458047Y-70998819D02*
X118219952Y-70998819D01*
X118219952Y-70998819D02*
X118124714Y-71046438D01*
X118124714Y-71046438D02*
X118077095Y-71094057D01*
X118077095Y-71094057D02*
X118029476Y-71189295D01*
X118029476Y-71189295D02*
X118029476Y-71284533D01*
X118029476Y-71284533D02*
X118077095Y-71427390D01*
X118077095Y-71427390D02*
X118648523Y-71998819D01*
X118648523Y-71998819D02*
X118029476Y-71998819D01*
X117172333Y-71332152D02*
X117172333Y-71998819D01*
X117410428Y-70951200D02*
X117648523Y-71665485D01*
X117648523Y-71665485D02*
X117029476Y-71665485D01*
X126206523Y-82803819D02*
X126206523Y-83518104D01*
X126206523Y-83518104D02*
X126254142Y-83660961D01*
X126254142Y-83660961D02*
X126349380Y-83756200D01*
X126349380Y-83756200D02*
X126492237Y-83803819D01*
X126492237Y-83803819D02*
X126587475Y-83803819D01*
X125206523Y-83803819D02*
X125777951Y-83803819D01*
X125492237Y-83803819D02*
X125492237Y-82803819D01*
X125492237Y-82803819D02*
X125587475Y-82946676D01*
X125587475Y-82946676D02*
X125682713Y-83041914D01*
X125682713Y-83041914D02*
X125777951Y-83089533D01*
X124730332Y-83803819D02*
X124539856Y-83803819D01*
X124539856Y-83803819D02*
X124444618Y-83756200D01*
X124444618Y-83756200D02*
X124396999Y-83708580D01*
X124396999Y-83708580D02*
X124301761Y-83565723D01*
X124301761Y-83565723D02*
X124254142Y-83375247D01*
X124254142Y-83375247D02*
X124254142Y-82994295D01*
X124254142Y-82994295D02*
X124301761Y-82899057D01*
X124301761Y-82899057D02*
X124349380Y-82851438D01*
X124349380Y-82851438D02*
X124444618Y-82803819D01*
X124444618Y-82803819D02*
X124635094Y-82803819D01*
X124635094Y-82803819D02*
X124730332Y-82851438D01*
X124730332Y-82851438D02*
X124777951Y-82899057D01*
X124777951Y-82899057D02*
X124825570Y-82994295D01*
X124825570Y-82994295D02*
X124825570Y-83232390D01*
X124825570Y-83232390D02*
X124777951Y-83327628D01*
X124777951Y-83327628D02*
X124730332Y-83375247D01*
X124730332Y-83375247D02*
X124635094Y-83422866D01*
X124635094Y-83422866D02*
X124444618Y-83422866D01*
X124444618Y-83422866D02*
X124349380Y-83375247D01*
X124349380Y-83375247D02*
X124301761Y-83327628D01*
X124301761Y-83327628D02*
X124254142Y-83232390D01*
X68215857Y-71784580D02*
X68263476Y-71832200D01*
X68263476Y-71832200D02*
X68406333Y-71879819D01*
X68406333Y-71879819D02*
X68501571Y-71879819D01*
X68501571Y-71879819D02*
X68644428Y-71832200D01*
X68644428Y-71832200D02*
X68739666Y-71736961D01*
X68739666Y-71736961D02*
X68787285Y-71641723D01*
X68787285Y-71641723D02*
X68834904Y-71451247D01*
X68834904Y-71451247D02*
X68834904Y-71308390D01*
X68834904Y-71308390D02*
X68787285Y-71117914D01*
X68787285Y-71117914D02*
X68739666Y-71022676D01*
X68739666Y-71022676D02*
X68644428Y-70927438D01*
X68644428Y-70927438D02*
X68501571Y-70879819D01*
X68501571Y-70879819D02*
X68406333Y-70879819D01*
X68406333Y-70879819D02*
X68263476Y-70927438D01*
X68263476Y-70927438D02*
X68215857Y-70975057D01*
X67834904Y-70975057D02*
X67787285Y-70927438D01*
X67787285Y-70927438D02*
X67692047Y-70879819D01*
X67692047Y-70879819D02*
X67453952Y-70879819D01*
X67453952Y-70879819D02*
X67358714Y-70927438D01*
X67358714Y-70927438D02*
X67311095Y-70975057D01*
X67311095Y-70975057D02*
X67263476Y-71070295D01*
X67263476Y-71070295D02*
X67263476Y-71165533D01*
X67263476Y-71165533D02*
X67311095Y-71308390D01*
X67311095Y-71308390D02*
X67882523Y-71879819D01*
X67882523Y-71879819D02*
X67263476Y-71879819D01*
X66311095Y-71879819D02*
X66882523Y-71879819D01*
X66596809Y-71879819D02*
X66596809Y-70879819D01*
X66596809Y-70879819D02*
X66692047Y-71022676D01*
X66692047Y-71022676D02*
X66787285Y-71117914D01*
X66787285Y-71117914D02*
X66882523Y-71165533D01*
X79754333Y-34410509D02*
X80087666Y-34410509D01*
X80087666Y-34934319D02*
X80087666Y-33934319D01*
X80087666Y-33934319D02*
X79611476Y-33934319D01*
X78897190Y-34410509D02*
X78754333Y-34458128D01*
X78754333Y-34458128D02*
X78706714Y-34505747D01*
X78706714Y-34505747D02*
X78659095Y-34600985D01*
X78659095Y-34600985D02*
X78659095Y-34743842D01*
X78659095Y-34743842D02*
X78706714Y-34839080D01*
X78706714Y-34839080D02*
X78754333Y-34886700D01*
X78754333Y-34886700D02*
X78849571Y-34934319D01*
X78849571Y-34934319D02*
X79230523Y-34934319D01*
X79230523Y-34934319D02*
X79230523Y-33934319D01*
X79230523Y-33934319D02*
X78897190Y-33934319D01*
X78897190Y-33934319D02*
X78801952Y-33981938D01*
X78801952Y-33981938D02*
X78754333Y-34029557D01*
X78754333Y-34029557D02*
X78706714Y-34124795D01*
X78706714Y-34124795D02*
X78706714Y-34220033D01*
X78706714Y-34220033D02*
X78754333Y-34315271D01*
X78754333Y-34315271D02*
X78801952Y-34362890D01*
X78801952Y-34362890D02*
X78897190Y-34410509D01*
X78897190Y-34410509D02*
X79230523Y-34410509D01*
X77706714Y-34934319D02*
X78278142Y-34934319D01*
X77992428Y-34934319D02*
X77992428Y-33934319D01*
X77992428Y-33934319D02*
X78087666Y-34077176D01*
X78087666Y-34077176D02*
X78182904Y-34172414D01*
X78182904Y-34172414D02*
X78278142Y-34220033D01*
X126671094Y-70516819D02*
X126671094Y-71326342D01*
X126671094Y-71326342D02*
X126623475Y-71421580D01*
X126623475Y-71421580D02*
X126575856Y-71469200D01*
X126575856Y-71469200D02*
X126480618Y-71516819D01*
X126480618Y-71516819D02*
X126290142Y-71516819D01*
X126290142Y-71516819D02*
X126194904Y-71469200D01*
X126194904Y-71469200D02*
X126147285Y-71421580D01*
X126147285Y-71421580D02*
X126099666Y-71326342D01*
X126099666Y-71326342D02*
X126099666Y-70516819D01*
X125099666Y-71516819D02*
X125671094Y-71516819D01*
X125385380Y-71516819D02*
X125385380Y-70516819D01*
X125385380Y-70516819D02*
X125480618Y-70659676D01*
X125480618Y-70659676D02*
X125575856Y-70754914D01*
X125575856Y-70754914D02*
X125671094Y-70802533D01*
X124242523Y-70850152D02*
X124242523Y-71516819D01*
X124480618Y-70469200D02*
X124718713Y-71183485D01*
X124718713Y-71183485D02*
X124099666Y-71183485D01*
X75423666Y-44541580D02*
X75471285Y-44589200D01*
X75471285Y-44589200D02*
X75614142Y-44636819D01*
X75614142Y-44636819D02*
X75709380Y-44636819D01*
X75709380Y-44636819D02*
X75852237Y-44589200D01*
X75852237Y-44589200D02*
X75947475Y-44493961D01*
X75947475Y-44493961D02*
X75995094Y-44398723D01*
X75995094Y-44398723D02*
X76042713Y-44208247D01*
X76042713Y-44208247D02*
X76042713Y-44065390D01*
X76042713Y-44065390D02*
X75995094Y-43874914D01*
X75995094Y-43874914D02*
X75947475Y-43779676D01*
X75947475Y-43779676D02*
X75852237Y-43684438D01*
X75852237Y-43684438D02*
X75709380Y-43636819D01*
X75709380Y-43636819D02*
X75614142Y-43636819D01*
X75614142Y-43636819D02*
X75471285Y-43684438D01*
X75471285Y-43684438D02*
X75423666Y-43732057D01*
X74566523Y-43970152D02*
X74566523Y-44636819D01*
X74804618Y-43589200D02*
X75042713Y-44303485D01*
X75042713Y-44303485D02*
X74423666Y-44303485D01*
X43058857Y-71820580D02*
X43106476Y-71868200D01*
X43106476Y-71868200D02*
X43249333Y-71915819D01*
X43249333Y-71915819D02*
X43344571Y-71915819D01*
X43344571Y-71915819D02*
X43487428Y-71868200D01*
X43487428Y-71868200D02*
X43582666Y-71772961D01*
X43582666Y-71772961D02*
X43630285Y-71677723D01*
X43630285Y-71677723D02*
X43677904Y-71487247D01*
X43677904Y-71487247D02*
X43677904Y-71344390D01*
X43677904Y-71344390D02*
X43630285Y-71153914D01*
X43630285Y-71153914D02*
X43582666Y-71058676D01*
X43582666Y-71058676D02*
X43487428Y-70963438D01*
X43487428Y-70963438D02*
X43344571Y-70915819D01*
X43344571Y-70915819D02*
X43249333Y-70915819D01*
X43249333Y-70915819D02*
X43106476Y-70963438D01*
X43106476Y-70963438D02*
X43058857Y-71011057D01*
X42677904Y-71011057D02*
X42630285Y-70963438D01*
X42630285Y-70963438D02*
X42535047Y-70915819D01*
X42535047Y-70915819D02*
X42296952Y-70915819D01*
X42296952Y-70915819D02*
X42201714Y-70963438D01*
X42201714Y-70963438D02*
X42154095Y-71011057D01*
X42154095Y-71011057D02*
X42106476Y-71106295D01*
X42106476Y-71106295D02*
X42106476Y-71201533D01*
X42106476Y-71201533D02*
X42154095Y-71344390D01*
X42154095Y-71344390D02*
X42725523Y-71915819D01*
X42725523Y-71915819D02*
X42106476Y-71915819D01*
X41773142Y-70915819D02*
X41154095Y-70915819D01*
X41154095Y-70915819D02*
X41487428Y-71296771D01*
X41487428Y-71296771D02*
X41344571Y-71296771D01*
X41344571Y-71296771D02*
X41249333Y-71344390D01*
X41249333Y-71344390D02*
X41201714Y-71392009D01*
X41201714Y-71392009D02*
X41154095Y-71487247D01*
X41154095Y-71487247D02*
X41154095Y-71725342D01*
X41154095Y-71725342D02*
X41201714Y-71820580D01*
X41201714Y-71820580D02*
X41249333Y-71868200D01*
X41249333Y-71868200D02*
X41344571Y-71915819D01*
X41344571Y-71915819D02*
X41630285Y-71915819D01*
X41630285Y-71915819D02*
X41725523Y-71868200D01*
X41725523Y-71868200D02*
X41773142Y-71820580D01*
X75576523Y-82808819D02*
X75576523Y-83523104D01*
X75576523Y-83523104D02*
X75624142Y-83665961D01*
X75624142Y-83665961D02*
X75719380Y-83761200D01*
X75719380Y-83761200D02*
X75862237Y-83808819D01*
X75862237Y-83808819D02*
X75957475Y-83808819D01*
X74576523Y-83808819D02*
X75147951Y-83808819D01*
X74862237Y-83808819D02*
X74862237Y-82808819D01*
X74862237Y-82808819D02*
X74957475Y-82951676D01*
X74957475Y-82951676D02*
X75052713Y-83046914D01*
X75052713Y-83046914D02*
X75147951Y-83094533D01*
X74243189Y-82808819D02*
X73576523Y-82808819D01*
X73576523Y-82808819D02*
X74005094Y-83808819D01*
X50644094Y-70653819D02*
X50644094Y-71463342D01*
X50644094Y-71463342D02*
X50596475Y-71558580D01*
X50596475Y-71558580D02*
X50548856Y-71606200D01*
X50548856Y-71606200D02*
X50453618Y-71653819D01*
X50453618Y-71653819D02*
X50263142Y-71653819D01*
X50263142Y-71653819D02*
X50167904Y-71606200D01*
X50167904Y-71606200D02*
X50120285Y-71558580D01*
X50120285Y-71558580D02*
X50072666Y-71463342D01*
X50072666Y-71463342D02*
X50072666Y-70653819D01*
X49072666Y-71653819D02*
X49644094Y-71653819D01*
X49358380Y-71653819D02*
X49358380Y-70653819D01*
X49358380Y-70653819D02*
X49453618Y-70796676D01*
X49453618Y-70796676D02*
X49548856Y-70891914D01*
X49548856Y-70891914D02*
X49644094Y-70939533D01*
X48739332Y-70653819D02*
X48120285Y-70653819D01*
X48120285Y-70653819D02*
X48453618Y-71034771D01*
X48453618Y-71034771D02*
X48310761Y-71034771D01*
X48310761Y-71034771D02*
X48215523Y-71082390D01*
X48215523Y-71082390D02*
X48167904Y-71130009D01*
X48167904Y-71130009D02*
X48120285Y-71225247D01*
X48120285Y-71225247D02*
X48120285Y-71463342D01*
X48120285Y-71463342D02*
X48167904Y-71558580D01*
X48167904Y-71558580D02*
X48215523Y-71606200D01*
X48215523Y-71606200D02*
X48310761Y-71653819D01*
X48310761Y-71653819D02*
X48596475Y-71653819D01*
X48596475Y-71653819D02*
X48691713Y-71606200D01*
X48691713Y-71606200D02*
X48739332Y-71558580D01*
X89755857Y-45314580D02*
X89803476Y-45362200D01*
X89803476Y-45362200D02*
X89946333Y-45409819D01*
X89946333Y-45409819D02*
X90041571Y-45409819D01*
X90041571Y-45409819D02*
X90184428Y-45362200D01*
X90184428Y-45362200D02*
X90279666Y-45266961D01*
X90279666Y-45266961D02*
X90327285Y-45171723D01*
X90327285Y-45171723D02*
X90374904Y-44981247D01*
X90374904Y-44981247D02*
X90374904Y-44838390D01*
X90374904Y-44838390D02*
X90327285Y-44647914D01*
X90327285Y-44647914D02*
X90279666Y-44552676D01*
X90279666Y-44552676D02*
X90184428Y-44457438D01*
X90184428Y-44457438D02*
X90041571Y-44409819D01*
X90041571Y-44409819D02*
X89946333Y-44409819D01*
X89946333Y-44409819D02*
X89803476Y-44457438D01*
X89803476Y-44457438D02*
X89755857Y-44505057D01*
X88803476Y-45409819D02*
X89374904Y-45409819D01*
X89089190Y-45409819D02*
X89089190Y-44409819D01*
X89089190Y-44409819D02*
X89184428Y-44552676D01*
X89184428Y-44552676D02*
X89279666Y-44647914D01*
X89279666Y-44647914D02*
X89374904Y-44695533D01*
X88470142Y-44409819D02*
X87851095Y-44409819D01*
X87851095Y-44409819D02*
X88184428Y-44790771D01*
X88184428Y-44790771D02*
X88041571Y-44790771D01*
X88041571Y-44790771D02*
X87946333Y-44838390D01*
X87946333Y-44838390D02*
X87898714Y-44886009D01*
X87898714Y-44886009D02*
X87851095Y-44981247D01*
X87851095Y-44981247D02*
X87851095Y-45219342D01*
X87851095Y-45219342D02*
X87898714Y-45314580D01*
X87898714Y-45314580D02*
X87946333Y-45362200D01*
X87946333Y-45362200D02*
X88041571Y-45409819D01*
X88041571Y-45409819D02*
X88327285Y-45409819D01*
X88327285Y-45409819D02*
X88422523Y-45362200D01*
X88422523Y-45362200D02*
X88470142Y-45314580D01*
D12*
%TO.C,C1*%
X81934580Y-43295500D02*
X81653420Y-43295500D01*
X81934580Y-44315500D02*
X81653420Y-44315500D01*
%TO.C,C14*%
X89240580Y-38003500D02*
X88959420Y-38003500D01*
X89240580Y-39023500D02*
X88959420Y-39023500D01*
%TO.C,C5*%
X81960580Y-37684500D02*
X81679420Y-37684500D01*
X81960580Y-38704500D02*
X81679420Y-38704500D01*
%TO.C,U10*%
X146887000Y-73434000D02*
X147337000Y-73434000D01*
X146887000Y-73884000D02*
X146887000Y-73434000D01*
X146887000Y-80204000D02*
X146887000Y-80654000D01*
X146887000Y-80654000D02*
X147337000Y-80654000D01*
X154107000Y-73434000D02*
X153657000Y-73434000D01*
X154107000Y-73884000D02*
X154107000Y-73434000D01*
X154107000Y-80204000D02*
X154107000Y-80654000D01*
X154107000Y-80654000D02*
X153657000Y-80654000D01*
X146637000Y-80674000D02*
X145957000Y-80674000D01*
X146297000Y-80204000D01*
X146637000Y-80674000D01*
G36*
X146637000Y-80674000D02*
G01*
X145957000Y-80674000D01*
X146297000Y-80204000D01*
X146637000Y-80674000D01*
G37*
%TO.C,C6*%
X81988580Y-39481500D02*
X81707420Y-39481500D01*
X81988580Y-40501500D02*
X81707420Y-40501500D01*
%TO.C,U11*%
X71156500Y-73428000D02*
X71606500Y-73428000D01*
X71156500Y-73878000D02*
X71156500Y-73428000D01*
X71156500Y-80198000D02*
X71156500Y-80648000D01*
X71156500Y-80648000D02*
X71606500Y-80648000D01*
X78376500Y-73428000D02*
X77926500Y-73428000D01*
X78376500Y-73878000D02*
X78376500Y-73428000D01*
X78376500Y-80198000D02*
X78376500Y-80648000D01*
X78376500Y-80648000D02*
X77926500Y-80648000D01*
X70906500Y-80668000D02*
X70226500Y-80668000D01*
X70566500Y-80198000D01*
X70906500Y-80668000D01*
G36*
X70906500Y-80668000D02*
G01*
X70226500Y-80668000D01*
X70566500Y-80198000D01*
X70906500Y-80668000D01*
G37*
%TO.C,J15*%
X140847000Y-85749000D02*
X142337000Y-85749000D01*
X140847000Y-87089000D02*
X140847000Y-85749000D01*
X140847000Y-89809000D02*
X140847000Y-91549000D01*
X140847000Y-91549000D02*
X160147000Y-91549000D01*
X158657000Y-84549000D02*
X158657000Y-85749000D01*
X160147000Y-85749000D02*
X158657000Y-85749000D01*
X160147000Y-87089000D02*
X160147000Y-85749000D01*
X160147000Y-91549000D02*
X160147000Y-89809000D01*
%TO.C,C7*%
X81957580Y-35869500D02*
X81676420Y-35869500D01*
X81957580Y-36889500D02*
X81676420Y-36889500D01*
%TO.C,C2*%
X73559580Y-38935000D02*
X73278420Y-38935000D01*
X73559580Y-39955000D02*
X73278420Y-39955000D01*
%TO.C,U12*%
X96686500Y-73437000D02*
X97136500Y-73437000D01*
X96686500Y-73887000D02*
X96686500Y-73437000D01*
X96686500Y-80207000D02*
X96686500Y-80657000D01*
X96686500Y-80657000D02*
X97136500Y-80657000D01*
X103906500Y-73437000D02*
X103456500Y-73437000D01*
X103906500Y-73887000D02*
X103906500Y-73437000D01*
X103906500Y-80207000D02*
X103906500Y-80657000D01*
X103906500Y-80657000D02*
X103456500Y-80657000D01*
X96436500Y-80677000D02*
X95756500Y-80677000D01*
X96096500Y-80207000D01*
X96436500Y-80677000D01*
G36*
X96436500Y-80677000D02*
G01*
X95756500Y-80677000D01*
X96096500Y-80207000D01*
X96436500Y-80677000D01*
G37*
%TO.C,J16*%
X39732000Y-85754000D02*
X41222000Y-85754000D01*
X39732000Y-87094000D02*
X39732000Y-85754000D01*
X39732000Y-89814000D02*
X39732000Y-91554000D01*
X39732000Y-91554000D02*
X59032000Y-91554000D01*
X57542000Y-84554000D02*
X57542000Y-85754000D01*
X59032000Y-85754000D02*
X57542000Y-85754000D01*
X59032000Y-87094000D02*
X59032000Y-85754000D01*
X59032000Y-91554000D02*
X59032000Y-89814000D01*
%TO.C,J18*%
X90647000Y-85754000D02*
X92137000Y-85754000D01*
X90647000Y-87094000D02*
X90647000Y-85754000D01*
X90647000Y-89814000D02*
X90647000Y-91554000D01*
X90647000Y-91554000D02*
X109947000Y-91554000D01*
X108457000Y-84554000D02*
X108457000Y-85754000D01*
X109947000Y-85754000D02*
X108457000Y-85754000D01*
X109947000Y-87094000D02*
X109947000Y-85754000D01*
X109947000Y-91554000D02*
X109947000Y-89814000D01*
%TO.C,C22*%
X92870420Y-72379000D02*
X93151580Y-72379000D01*
X92870420Y-73399000D02*
X93151580Y-73399000D01*
%TO.C,C12*%
X81954580Y-41342500D02*
X81673420Y-41342500D01*
X81954580Y-42362500D02*
X81673420Y-42362500D01*
%TO.C,C20*%
X143139420Y-72366000D02*
X143420580Y-72366000D01*
X143139420Y-73386000D02*
X143420580Y-73386000D01*
%TO.C,C3*%
X72174000Y-41934420D02*
X72174000Y-42215580D01*
X73194000Y-41934420D02*
X73194000Y-42215580D01*
%TO.C,R2*%
X74724258Y-46844000D02*
X74249742Y-46844000D01*
X74724258Y-47889000D02*
X74249742Y-47889000D01*
%TO.C,C24*%
X118082420Y-72382000D02*
X118363580Y-72382000D01*
X118082420Y-73402000D02*
X118363580Y-73402000D01*
%TO.C,J19*%
X115747000Y-85749000D02*
X117237000Y-85749000D01*
X115747000Y-87089000D02*
X115747000Y-85749000D01*
X115747000Y-89809000D02*
X115747000Y-91549000D01*
X115747000Y-91549000D02*
X135047000Y-91549000D01*
X133557000Y-84549000D02*
X133557000Y-85749000D01*
X135047000Y-85749000D02*
X133557000Y-85749000D01*
X135047000Y-87089000D02*
X135047000Y-85749000D01*
X135047000Y-91549000D02*
X135047000Y-89809000D01*
%TO.C,C21*%
X67330420Y-72415000D02*
X67611580Y-72415000D01*
X67330420Y-73435000D02*
X67611580Y-73435000D01*
%TO.C,FB1*%
X82439122Y-33696500D02*
X81639878Y-33696500D01*
X82439122Y-34816500D02*
X81639878Y-34816500D01*
%TO.C,U14*%
X121786500Y-73432000D02*
X122236500Y-73432000D01*
X121786500Y-73882000D02*
X121786500Y-73432000D01*
X121786500Y-80202000D02*
X121786500Y-80652000D01*
X121786500Y-80652000D02*
X122236500Y-80652000D01*
X129006500Y-73432000D02*
X128556500Y-73432000D01*
X129006500Y-73882000D02*
X129006500Y-73432000D01*
X129006500Y-80202000D02*
X129006500Y-80652000D01*
X129006500Y-80652000D02*
X128556500Y-80652000D01*
X121536500Y-80672000D02*
X120856500Y-80672000D01*
X121196500Y-80202000D01*
X121536500Y-80672000D01*
G36*
X121536500Y-80672000D02*
G01*
X120856500Y-80672000D01*
X121196500Y-80202000D01*
X121536500Y-80672000D01*
G37*
%TO.C,C4*%
X75236420Y-42327000D02*
X75517580Y-42327000D01*
X75236420Y-43347000D02*
X75517580Y-43347000D01*
%TO.C,C23*%
X42017420Y-72365000D02*
X42298580Y-72365000D01*
X42017420Y-73385000D02*
X42298580Y-73385000D01*
%TO.C,J17*%
X65117000Y-85754000D02*
X66607000Y-85754000D01*
X65117000Y-87094000D02*
X65117000Y-85754000D01*
X65117000Y-89814000D02*
X65117000Y-91554000D01*
X65117000Y-91554000D02*
X84417000Y-91554000D01*
X82927000Y-84554000D02*
X82927000Y-85754000D01*
X84417000Y-85754000D02*
X82927000Y-85754000D01*
X84417000Y-87094000D02*
X84417000Y-85754000D01*
X84417000Y-91554000D02*
X84417000Y-89814000D01*
%TO.C,U13*%
X45759500Y-73429000D02*
X46209500Y-73429000D01*
X45759500Y-73879000D02*
X45759500Y-73429000D01*
X45759500Y-80199000D02*
X45759500Y-80649000D01*
X45759500Y-80649000D02*
X46209500Y-80649000D01*
X52979500Y-73429000D02*
X52529500Y-73429000D01*
X52979500Y-73879000D02*
X52979500Y-73429000D01*
X52979500Y-80199000D02*
X52979500Y-80649000D01*
X52979500Y-80649000D02*
X52529500Y-80649000D01*
X45509500Y-80669000D02*
X44829500Y-80669000D01*
X45169500Y-80199000D01*
X45509500Y-80669000D01*
G36*
X45509500Y-80669000D02*
G01*
X44829500Y-80669000D01*
X45169500Y-80199000D01*
X45509500Y-80669000D01*
G37*
%TO.C,C13*%
X89253580Y-43015000D02*
X88972420Y-43015000D01*
X89253580Y-44035000D02*
X88972420Y-44035000D01*
%TD*%
M02*
