M48
; DRILL file {KiCad 8.0.6} date 2025-05-29T23:44:30-0600
; FORMAT={-:-/ absolute / inch / decimal}
; #@! TF.CreationDate,2025-05-29T23:44:30-06:00
; #@! TF.GenerationSoftware,Kicad,Pcbnew,8.0.6
; #@! TF.FileFunction,Plated,1,2,PTH
FMAT,2
INCH
; #@! TA.AperFunction,Plated,PTH,ViaDrill
T1C0.0079
; #@! TA.AperFunction,Plated,PTH,ViaDrill
T2C0.0118
; #@! TA.AperFunction,Plated,PTH,ViaDrill
T3C0.0197
; #@! TA.AperFunction,Plated,PTH,ComponentDrill
T4C0.0197
; #@! TA.AperFunction,Plated,PTH,ComponentDrill
T5C0.0315
; #@! TA.AperFunction,Plated,PTH,ComponentDrill
T6C0.0394
%
G90
G05
T1
X2.5022Y-1.8226
X2.6174Y-1.4682
X2.65Y-1.4484
X2.6763Y-1.45
X2.6999Y-1.4512
X2.7235Y-1.4524
X2.7272Y-1.6836
X2.7568Y-1.7657
X2.8268Y-1.6586
X2.8485Y-1.3848
X2.8852Y-1.3822
X2.8866Y-1.339
X2.9204Y-1.504
X2.9211Y-1.3398
X2.9659Y-1.734
X2.9951Y-1.7267
X3.0155Y-1.6034
X3.054Y-1.5852
X3.1427Y-1.6049
X3.1444Y-1.7239
X3.1479Y-1.5598
X3.2905Y-1.5766
T2
X1.4761Y-2.1737
X1.5969Y-2.1795
X1.6041Y-2.4329
X1.6426Y-2.9193
X1.7002Y-2.7839
X1.7943Y-2.4306
X1.9453Y-2.9322
X1.9474Y-2.9636
X1.9535Y-3.13
X2.0163Y-3.0788
X2.0548Y-2.6722
X2.0618Y-2.5533
X2.0787Y-2.6485
X2.1023Y-2.6249
X2.1197Y-2.5297
X2.1265Y-2.6013
X2.1501Y-2.5774
X2.2039Y-2.5035
X2.2512Y-2.9165
X2.255Y-1.2934
X2.3039Y-2.8653
X2.5739Y-2.6958
X2.6Y-2.5533
X2.625Y-2.5297
X2.6439Y-2.9199
X2.6445Y-1.2916
X2.6501Y-2.5061
X2.6883Y-2.8129
X2.7025Y-2.6721
X2.7109Y-1.9513
X2.7231Y-2.6483
X2.7439Y-2.6247
X2.7452Y-1.9513
X2.7743Y-2.6011
X2.7958Y-2.5776
X2.8235Y-1.8825
X2.8247Y-1.4979
X2.831Y-1.7102
X2.8588Y-2.6013
X2.8625Y-1.5041
X2.8633Y-3.1089
X2.8822Y-2.6249
X2.9058Y-2.6485
X2.9119Y-2.5059
X2.9298Y-2.6729
X2.9418Y-2.4745
X2.9505Y-2.9392
X2.9534Y-3.128
X2.9737Y-2.449
X2.999Y-2.9386
X3.0063Y-2.4254
X3.0238Y-3.0433
X3.0382Y-2.701
X3.0439Y-1.723
X3.1789Y-1.8145
X3.2538Y-2.922
X3.4552Y-2.7619
X3.5593Y-2.2676
X3.5983Y-2.2681
X3.6085Y-2.5531
X3.6322Y-2.5295
X3.6448Y-2.9233
X3.6558Y-2.5059
X3.6925Y-2.8044
X3.7032Y-2.5776
X3.7034Y-2.6252
X3.7034Y-2.6726
X3.7082Y-2.5059
X3.724Y-2.6013
X3.7242Y-2.6489
X3.7248Y-2.2189
X3.8574Y-2.6015
X3.8667Y-3.1131
X3.8698Y-1.4582
X3.881Y-2.6252
X3.9048Y-2.649
X3.9284Y-2.6716
X3.9489Y-2.9291
X3.9513Y-2.9605
X3.9585Y-3.1273
X4.0259Y-3.0597
X4.0412Y-2.7212
X4.1952Y-2.7897
X4.2398Y-2.9267
X4.3126Y-2.8656
X4.5017Y-2.8921
X4.59Y-2.5531
X4.6141Y-2.5295
X4.6377Y-2.5059
X4.6419Y-1.4559
X4.649Y-2.8101
X4.6785Y-2.5059
X4.6854Y-2.6244
X4.6855Y-2.6716
X4.6857Y-2.5771
X4.7064Y-2.648
X4.7067Y-2.6007
X4.8442Y-2.6006
X4.8607Y-3.0572
X4.8682Y-2.6245
X4.892Y-2.6481
X4.9155Y-2.6717
X4.9411Y-2.9353
X4.9416Y-2.9668
X5.0124Y-3.0575
X5.0294Y-2.6958
X5.063Y-2.8071
X5.1386Y-2.808
X5.3033Y-2.8691
X5.4719Y-2.1113
X5.5769Y-1.8766
X5.6022Y-2.5531
X5.6253Y-2.5294
X5.6449Y-2.9234
X5.6489Y-2.5071
X5.6725Y-2.6244
X5.6727Y-2.5768
X5.6728Y-2.8088
X5.6729Y-2.6717
X5.6933Y-2.6007
X5.6937Y-2.648
X5.8302Y-2.6004
X5.8453Y-3.1114
X5.8541Y-2.6244
X5.8778Y-2.648
X5.9015Y-2.6717
X5.9121Y-1.7662
X5.9274Y-2.9332
X5.9293Y-2.9646
X5.9349Y-3.1219
X6.003Y-3.0539
X6.2926Y-2.87
T3
X1.5883Y-1.9119
X1.6386Y-1.9389
X1.6699Y-2.0174
X1.9545Y-1.783
X1.9547Y-1.4161
X2.0119Y-1.9036
X2.5794Y-2.3259
X3.0798Y-2.3242
X4.4113Y-2.3243
X4.6206Y-2.3248
T5
X3.4072Y-1.5192
X3.4072Y-1.7114
X4.3031Y-1.7994
X4.3031Y-1.8994
X4.3031Y-1.9994
X4.524Y-1.7493
X4.524Y-2.1493
T6
X1.603Y-1.0706
X1.703Y-1.0706
X1.803Y-1.0706
X2.3564Y-1.5126
X2.3564Y-1.6126
X2.3564Y-1.7126
X2.4564Y-1.5126
X2.4564Y-1.6126
X2.4564Y-1.7126
X2.7529Y-1.2057
X2.8529Y-1.2057
X2.9529Y-1.2057
X3.0529Y-1.2057
X3.7799Y-1.8007
X3.7799Y-1.9007
X3.7799Y-2.0007
X3.9573Y-2.195
X4.0573Y-2.195
X4.9237Y-1.1042
X4.9237Y-1.7042
X5.0237Y-1.1042
X5.0237Y-1.7042
X5.1237Y-1.1042
X5.1237Y-1.7042
X5.2237Y-1.1042
X5.2237Y-1.7042
X5.3237Y-1.1042
X5.3237Y-1.7042
X5.4237Y-1.1042
X5.4237Y-1.7042
X5.5237Y-1.1042
X5.5237Y-1.7042
X5.6237Y-1.1042
X5.6237Y-1.7042
X5.7237Y-1.1042
X5.7237Y-1.7042
X6.5339Y-2.0344
X6.5339Y-2.1344
X6.5339Y-2.2344
X6.5339Y-2.3344
X6.5339Y-2.4344
X6.5339Y-2.5344
T4
G00X1.3904Y-1.2319
M15
G01X1.3668Y-1.2319
M16
G05
G00X1.3904Y-1.5854
M15
G01X1.3668Y-1.5854
M16
G05
G00X1.6247Y-1.246
M15
G01X1.6011Y-1.246
M16
G05
G00X1.6247Y-1.5712
M15
G01X1.6011Y-1.5712
M16
G05
M30
