%TF.GenerationSoftware,KiCad,Pcbnew,8.0.6*%
%TF.CreationDate,2025-05-29T23:44:32-06:00*%
%TF.ProjectId,GripForceMeasurementDeviceCkt_STM32F103C8T6,47726970-466f-4726-9365-4d6561737572,rev?*%
%TF.SameCoordinates,Original*%
%TF.FileFunction,Drillmap*%
%TF.FilePolarity,Positive*%
%FSLAX45Y45*%
G04 Gerber Fmt 4.5, Leading zero omitted, Abs format (unit mm)*
G04 Created by KiCad (PCBNEW 8.0.6) date 2025-05-29 23:44:32*
%MOMM*%
%LPD*%
G01*
G04 APERTURE LIST*
%ADD10C,0.050000*%
%ADD11C,0.200000*%
%ADD12C,0.100000*%
G04 APERTURE END LIST*
D10*
X16762400Y-9101916D02*
G75*
G02*
X16562400Y-9101916I-100000J0D01*
G01*
X16562400Y-9101916D02*
G75*
G02*
X16762400Y-9101916I100000J0D01*
G01*
X3613000Y-9113400D02*
G75*
G02*
X3413000Y-9113400I-100000J0D01*
G01*
X3413000Y-9113400D02*
G75*
G02*
X3613000Y-9113400I100000J0D01*
G01*
X3613000Y-2542400D02*
G75*
G02*
X3413000Y-2542400I-100000J0D01*
G01*
X3413000Y-2542400D02*
G75*
G02*
X3613000Y-2542400I100000J0D01*
G01*
X16783800Y-2542500D02*
G75*
G02*
X16583800Y-2542500I-100000J0D01*
G01*
X16583800Y-2542500D02*
G75*
G02*
X16783800Y-2542500I100000J0D01*
G01*
X3298400Y-2328000D02*
X16898400Y-2328000D01*
X16898400Y-9328000D01*
X3298400Y-9328000D01*
X3298400Y-2328000D01*
D11*
D12*
X4189200Y-3185400D02*
X4254200Y-3250400D01*
X4254200Y-3185400D02*
X4189200Y-3250400D01*
X4189200Y-3905400D02*
X4254200Y-3970400D01*
X4254200Y-3905400D02*
X4189200Y-3970400D01*
X4189200Y-3922900D02*
X4189200Y-3952900D01*
X4254200Y-3952900D02*
G75*
G02*
X4189200Y-3952900I-32500J0D01*
G01*
X4254200Y-3952900D02*
X4254200Y-3922900D01*
X4254200Y-3922900D02*
G75*
G03*
X4189200Y-3922900I-32500J0D01*
G01*
D11*
X3556677Y-9641984D02*
X3556677Y-9441984D01*
X3556677Y-9441984D02*
X3604296Y-9441984D01*
X3604296Y-9441984D02*
X3632867Y-9451508D01*
X3632867Y-9451508D02*
X3651915Y-9470555D01*
X3651915Y-9470555D02*
X3661439Y-9489603D01*
X3661439Y-9489603D02*
X3670962Y-9527698D01*
X3670962Y-9527698D02*
X3670962Y-9556270D01*
X3670962Y-9556270D02*
X3661439Y-9594365D01*
X3661439Y-9594365D02*
X3651915Y-9613412D01*
X3651915Y-9613412D02*
X3632867Y-9632460D01*
X3632867Y-9632460D02*
X3604296Y-9641984D01*
X3604296Y-9641984D02*
X3556677Y-9641984D01*
X3756677Y-9641984D02*
X3756677Y-9508650D01*
X3756677Y-9546746D02*
X3766201Y-9527698D01*
X3766201Y-9527698D02*
X3775724Y-9518174D01*
X3775724Y-9518174D02*
X3794772Y-9508650D01*
X3794772Y-9508650D02*
X3813820Y-9508650D01*
X3880486Y-9641984D02*
X3880486Y-9508650D01*
X3880486Y-9441984D02*
X3870962Y-9451508D01*
X3870962Y-9451508D02*
X3880486Y-9461031D01*
X3880486Y-9461031D02*
X3890010Y-9451508D01*
X3890010Y-9451508D02*
X3880486Y-9441984D01*
X3880486Y-9441984D02*
X3880486Y-9461031D01*
X4004296Y-9641984D02*
X3985248Y-9632460D01*
X3985248Y-9632460D02*
X3975724Y-9613412D01*
X3975724Y-9613412D02*
X3975724Y-9441984D01*
X4109058Y-9641984D02*
X4090010Y-9632460D01*
X4090010Y-9632460D02*
X4080486Y-9613412D01*
X4080486Y-9613412D02*
X4080486Y-9441984D01*
X4337629Y-9641984D02*
X4337629Y-9441984D01*
X4337629Y-9441984D02*
X4404296Y-9584841D01*
X4404296Y-9584841D02*
X4470963Y-9441984D01*
X4470963Y-9441984D02*
X4470963Y-9641984D01*
X4651915Y-9641984D02*
X4651915Y-9537222D01*
X4651915Y-9537222D02*
X4642391Y-9518174D01*
X4642391Y-9518174D02*
X4623344Y-9508650D01*
X4623344Y-9508650D02*
X4585248Y-9508650D01*
X4585248Y-9508650D02*
X4566201Y-9518174D01*
X4651915Y-9632460D02*
X4632867Y-9641984D01*
X4632867Y-9641984D02*
X4585248Y-9641984D01*
X4585248Y-9641984D02*
X4566201Y-9632460D01*
X4566201Y-9632460D02*
X4556677Y-9613412D01*
X4556677Y-9613412D02*
X4556677Y-9594365D01*
X4556677Y-9594365D02*
X4566201Y-9575317D01*
X4566201Y-9575317D02*
X4585248Y-9565793D01*
X4585248Y-9565793D02*
X4632867Y-9565793D01*
X4632867Y-9565793D02*
X4651915Y-9556270D01*
X4747153Y-9508650D02*
X4747153Y-9708650D01*
X4747153Y-9518174D02*
X4766201Y-9508650D01*
X4766201Y-9508650D02*
X4804296Y-9508650D01*
X4804296Y-9508650D02*
X4823344Y-9518174D01*
X4823344Y-9518174D02*
X4832867Y-9527698D01*
X4832867Y-9527698D02*
X4842391Y-9546746D01*
X4842391Y-9546746D02*
X4842391Y-9603889D01*
X4842391Y-9603889D02*
X4832867Y-9622936D01*
X4832867Y-9622936D02*
X4823344Y-9632460D01*
X4823344Y-9632460D02*
X4804296Y-9641984D01*
X4804296Y-9641984D02*
X4766201Y-9641984D01*
X4766201Y-9641984D02*
X4747153Y-9632460D01*
X4928105Y-9622936D02*
X4937629Y-9632460D01*
X4937629Y-9632460D02*
X4928105Y-9641984D01*
X4928105Y-9641984D02*
X4918582Y-9632460D01*
X4918582Y-9632460D02*
X4928105Y-9622936D01*
X4928105Y-9622936D02*
X4928105Y-9641984D01*
X4928105Y-9518174D02*
X4937629Y-9527698D01*
X4937629Y-9527698D02*
X4928105Y-9537222D01*
X4928105Y-9537222D02*
X4918582Y-9527698D01*
X4918582Y-9527698D02*
X4928105Y-9518174D01*
X4928105Y-9518174D02*
X4928105Y-9537222D01*
D12*
X3230900Y-9938000D02*
X3295900Y-10003000D01*
X3295900Y-9938000D02*
X3230900Y-10003000D01*
D11*
X3594772Y-9861984D02*
X3613820Y-9861984D01*
X3613820Y-9861984D02*
X3632867Y-9871508D01*
X3632867Y-9871508D02*
X3642391Y-9881031D01*
X3642391Y-9881031D02*
X3651915Y-9900079D01*
X3651915Y-9900079D02*
X3661439Y-9938174D01*
X3661439Y-9938174D02*
X3661439Y-9985793D01*
X3661439Y-9985793D02*
X3651915Y-10023889D01*
X3651915Y-10023889D02*
X3642391Y-10042936D01*
X3642391Y-10042936D02*
X3632867Y-10052460D01*
X3632867Y-10052460D02*
X3613820Y-10061984D01*
X3613820Y-10061984D02*
X3594772Y-10061984D01*
X3594772Y-10061984D02*
X3575724Y-10052460D01*
X3575724Y-10052460D02*
X3566201Y-10042936D01*
X3566201Y-10042936D02*
X3556677Y-10023889D01*
X3556677Y-10023889D02*
X3547153Y-9985793D01*
X3547153Y-9985793D02*
X3547153Y-9938174D01*
X3547153Y-9938174D02*
X3556677Y-9900079D01*
X3556677Y-9900079D02*
X3566201Y-9881031D01*
X3566201Y-9881031D02*
X3575724Y-9871508D01*
X3575724Y-9871508D02*
X3594772Y-9861984D01*
X3747153Y-10042936D02*
X3756677Y-10052460D01*
X3756677Y-10052460D02*
X3747153Y-10061984D01*
X3747153Y-10061984D02*
X3737629Y-10052460D01*
X3737629Y-10052460D02*
X3747153Y-10042936D01*
X3747153Y-10042936D02*
X3747153Y-10061984D01*
X3928105Y-9861984D02*
X3890010Y-9861984D01*
X3890010Y-9861984D02*
X3870962Y-9871508D01*
X3870962Y-9871508D02*
X3861439Y-9881031D01*
X3861439Y-9881031D02*
X3842391Y-9909603D01*
X3842391Y-9909603D02*
X3832867Y-9947698D01*
X3832867Y-9947698D02*
X3832867Y-10023889D01*
X3832867Y-10023889D02*
X3842391Y-10042936D01*
X3842391Y-10042936D02*
X3851915Y-10052460D01*
X3851915Y-10052460D02*
X3870962Y-10061984D01*
X3870962Y-10061984D02*
X3909058Y-10061984D01*
X3909058Y-10061984D02*
X3928105Y-10052460D01*
X3928105Y-10052460D02*
X3937629Y-10042936D01*
X3937629Y-10042936D02*
X3947153Y-10023889D01*
X3947153Y-10023889D02*
X3947153Y-9976270D01*
X3947153Y-9976270D02*
X3937629Y-9957222D01*
X3937629Y-9957222D02*
X3928105Y-9947698D01*
X3928105Y-9947698D02*
X3909058Y-9938174D01*
X3909058Y-9938174D02*
X3870962Y-9938174D01*
X3870962Y-9938174D02*
X3851915Y-9947698D01*
X3851915Y-9947698D02*
X3842391Y-9957222D01*
X3842391Y-9957222D02*
X3832867Y-9976270D01*
X4128105Y-9861984D02*
X4032867Y-9861984D01*
X4032867Y-9861984D02*
X4023343Y-9957222D01*
X4023343Y-9957222D02*
X4032867Y-9947698D01*
X4032867Y-9947698D02*
X4051915Y-9938174D01*
X4051915Y-9938174D02*
X4099534Y-9938174D01*
X4099534Y-9938174D02*
X4118582Y-9947698D01*
X4118582Y-9947698D02*
X4128105Y-9957222D01*
X4128105Y-9957222D02*
X4137629Y-9976270D01*
X4137629Y-9976270D02*
X4137629Y-10023889D01*
X4137629Y-10023889D02*
X4128105Y-10042936D01*
X4128105Y-10042936D02*
X4118582Y-10052460D01*
X4118582Y-10052460D02*
X4099534Y-10061984D01*
X4099534Y-10061984D02*
X4051915Y-10061984D01*
X4051915Y-10061984D02*
X4032867Y-10052460D01*
X4032867Y-10052460D02*
X4023343Y-10042936D01*
X4261439Y-9861984D02*
X4280486Y-9861984D01*
X4280486Y-9861984D02*
X4299534Y-9871508D01*
X4299534Y-9871508D02*
X4309058Y-9881031D01*
X4309058Y-9881031D02*
X4318582Y-9900079D01*
X4318582Y-9900079D02*
X4328105Y-9938174D01*
X4328105Y-9938174D02*
X4328105Y-9985793D01*
X4328105Y-9985793D02*
X4318582Y-10023889D01*
X4318582Y-10023889D02*
X4309058Y-10042936D01*
X4309058Y-10042936D02*
X4299534Y-10052460D01*
X4299534Y-10052460D02*
X4280486Y-10061984D01*
X4280486Y-10061984D02*
X4261439Y-10061984D01*
X4261439Y-10061984D02*
X4242391Y-10052460D01*
X4242391Y-10052460D02*
X4232867Y-10042936D01*
X4232867Y-10042936D02*
X4223344Y-10023889D01*
X4223344Y-10023889D02*
X4213820Y-9985793D01*
X4213820Y-9985793D02*
X4213820Y-9938174D01*
X4213820Y-9938174D02*
X4223344Y-9900079D01*
X4223344Y-9900079D02*
X4232867Y-9881031D01*
X4232867Y-9881031D02*
X4242391Y-9871508D01*
X4242391Y-9871508D02*
X4261439Y-9861984D01*
X4413820Y-10061984D02*
X4413820Y-9928650D01*
X4413820Y-9947698D02*
X4423344Y-9938174D01*
X4423344Y-9938174D02*
X4442391Y-9928650D01*
X4442391Y-9928650D02*
X4470963Y-9928650D01*
X4470963Y-9928650D02*
X4490010Y-9938174D01*
X4490010Y-9938174D02*
X4499534Y-9957222D01*
X4499534Y-9957222D02*
X4499534Y-10061984D01*
X4499534Y-9957222D02*
X4509058Y-9938174D01*
X4509058Y-9938174D02*
X4528105Y-9928650D01*
X4528105Y-9928650D02*
X4556677Y-9928650D01*
X4556677Y-9928650D02*
X4575725Y-9938174D01*
X4575725Y-9938174D02*
X4585248Y-9957222D01*
X4585248Y-9957222D02*
X4585248Y-10061984D01*
X4680486Y-10061984D02*
X4680486Y-9928650D01*
X4680486Y-9947698D02*
X4690010Y-9938174D01*
X4690010Y-9938174D02*
X4709058Y-9928650D01*
X4709058Y-9928650D02*
X4737629Y-9928650D01*
X4737629Y-9928650D02*
X4756677Y-9938174D01*
X4756677Y-9938174D02*
X4766201Y-9957222D01*
X4766201Y-9957222D02*
X4766201Y-10061984D01*
X4766201Y-9957222D02*
X4775725Y-9938174D01*
X4775725Y-9938174D02*
X4794772Y-9928650D01*
X4794772Y-9928650D02*
X4823344Y-9928650D01*
X4823344Y-9928650D02*
X4842391Y-9938174D01*
X4842391Y-9938174D02*
X4851915Y-9957222D01*
X4851915Y-9957222D02*
X4851915Y-10061984D01*
X5242391Y-9852460D02*
X5070963Y-10109603D01*
X5499534Y-9861984D02*
X5518582Y-9861984D01*
X5518582Y-9861984D02*
X5537629Y-9871508D01*
X5537629Y-9871508D02*
X5547153Y-9881031D01*
X5547153Y-9881031D02*
X5556677Y-9900079D01*
X5556677Y-9900079D02*
X5566201Y-9938174D01*
X5566201Y-9938174D02*
X5566201Y-9985793D01*
X5566201Y-9985793D02*
X5556677Y-10023889D01*
X5556677Y-10023889D02*
X5547153Y-10042936D01*
X5547153Y-10042936D02*
X5537629Y-10052460D01*
X5537629Y-10052460D02*
X5518582Y-10061984D01*
X5518582Y-10061984D02*
X5499534Y-10061984D01*
X5499534Y-10061984D02*
X5480487Y-10052460D01*
X5480487Y-10052460D02*
X5470963Y-10042936D01*
X5470963Y-10042936D02*
X5461439Y-10023889D01*
X5461439Y-10023889D02*
X5451915Y-9985793D01*
X5451915Y-9985793D02*
X5451915Y-9938174D01*
X5451915Y-9938174D02*
X5461439Y-9900079D01*
X5461439Y-9900079D02*
X5470963Y-9881031D01*
X5470963Y-9881031D02*
X5480487Y-9871508D01*
X5480487Y-9871508D02*
X5499534Y-9861984D01*
X5651915Y-10042936D02*
X5661439Y-10052460D01*
X5661439Y-10052460D02*
X5651915Y-10061984D01*
X5651915Y-10061984D02*
X5642391Y-10052460D01*
X5642391Y-10052460D02*
X5651915Y-10042936D01*
X5651915Y-10042936D02*
X5651915Y-10061984D01*
X5785248Y-9861984D02*
X5804296Y-9861984D01*
X5804296Y-9861984D02*
X5823344Y-9871508D01*
X5823344Y-9871508D02*
X5832867Y-9881031D01*
X5832867Y-9881031D02*
X5842391Y-9900079D01*
X5842391Y-9900079D02*
X5851915Y-9938174D01*
X5851915Y-9938174D02*
X5851915Y-9985793D01*
X5851915Y-9985793D02*
X5842391Y-10023889D01*
X5842391Y-10023889D02*
X5832867Y-10042936D01*
X5832867Y-10042936D02*
X5823344Y-10052460D01*
X5823344Y-10052460D02*
X5804296Y-10061984D01*
X5804296Y-10061984D02*
X5785248Y-10061984D01*
X5785248Y-10061984D02*
X5766201Y-10052460D01*
X5766201Y-10052460D02*
X5756677Y-10042936D01*
X5756677Y-10042936D02*
X5747153Y-10023889D01*
X5747153Y-10023889D02*
X5737629Y-9985793D01*
X5737629Y-9985793D02*
X5737629Y-9938174D01*
X5737629Y-9938174D02*
X5747153Y-9900079D01*
X5747153Y-9900079D02*
X5756677Y-9881031D01*
X5756677Y-9881031D02*
X5766201Y-9871508D01*
X5766201Y-9871508D02*
X5785248Y-9861984D01*
X5928106Y-9881031D02*
X5937629Y-9871508D01*
X5937629Y-9871508D02*
X5956677Y-9861984D01*
X5956677Y-9861984D02*
X6004296Y-9861984D01*
X6004296Y-9861984D02*
X6023344Y-9871508D01*
X6023344Y-9871508D02*
X6032867Y-9881031D01*
X6032867Y-9881031D02*
X6042391Y-9900079D01*
X6042391Y-9900079D02*
X6042391Y-9919127D01*
X6042391Y-9919127D02*
X6032867Y-9947698D01*
X6032867Y-9947698D02*
X5918582Y-10061984D01*
X5918582Y-10061984D02*
X6042391Y-10061984D01*
X6223344Y-9861984D02*
X6128106Y-9861984D01*
X6128106Y-9861984D02*
X6118582Y-9957222D01*
X6118582Y-9957222D02*
X6128106Y-9947698D01*
X6128106Y-9947698D02*
X6147153Y-9938174D01*
X6147153Y-9938174D02*
X6194772Y-9938174D01*
X6194772Y-9938174D02*
X6213820Y-9947698D01*
X6213820Y-9947698D02*
X6223344Y-9957222D01*
X6223344Y-9957222D02*
X6232867Y-9976270D01*
X6232867Y-9976270D02*
X6232867Y-10023889D01*
X6232867Y-10023889D02*
X6223344Y-10042936D01*
X6223344Y-10042936D02*
X6213820Y-10052460D01*
X6213820Y-10052460D02*
X6194772Y-10061984D01*
X6194772Y-10061984D02*
X6147153Y-10061984D01*
X6147153Y-10061984D02*
X6128106Y-10052460D01*
X6128106Y-10052460D02*
X6118582Y-10042936D01*
X6404296Y-9861984D02*
X6366201Y-9861984D01*
X6366201Y-9861984D02*
X6347153Y-9871508D01*
X6347153Y-9871508D02*
X6337629Y-9881031D01*
X6337629Y-9881031D02*
X6318582Y-9909603D01*
X6318582Y-9909603D02*
X6309058Y-9947698D01*
X6309058Y-9947698D02*
X6309058Y-10023889D01*
X6309058Y-10023889D02*
X6318582Y-10042936D01*
X6318582Y-10042936D02*
X6328106Y-10052460D01*
X6328106Y-10052460D02*
X6347153Y-10061984D01*
X6347153Y-10061984D02*
X6385248Y-10061984D01*
X6385248Y-10061984D02*
X6404296Y-10052460D01*
X6404296Y-10052460D02*
X6413820Y-10042936D01*
X6413820Y-10042936D02*
X6423344Y-10023889D01*
X6423344Y-10023889D02*
X6423344Y-9976270D01*
X6423344Y-9976270D02*
X6413820Y-9957222D01*
X6413820Y-9957222D02*
X6404296Y-9947698D01*
X6404296Y-9947698D02*
X6385248Y-9938174D01*
X6385248Y-9938174D02*
X6347153Y-9938174D01*
X6347153Y-9938174D02*
X6328106Y-9947698D01*
X6328106Y-9947698D02*
X6318582Y-9957222D01*
X6318582Y-9957222D02*
X6309058Y-9976270D01*
X6499534Y-9861984D02*
X6499534Y-9900079D01*
X6575725Y-9861984D02*
X6575725Y-9900079D01*
X6870963Y-10138174D02*
X6861439Y-10128650D01*
X6861439Y-10128650D02*
X6842391Y-10100079D01*
X6842391Y-10100079D02*
X6832868Y-10081031D01*
X6832868Y-10081031D02*
X6823344Y-10052460D01*
X6823344Y-10052460D02*
X6813820Y-10004841D01*
X6813820Y-10004841D02*
X6813820Y-9966746D01*
X6813820Y-9966746D02*
X6823344Y-9919127D01*
X6823344Y-9919127D02*
X6832868Y-9890555D01*
X6832868Y-9890555D02*
X6842391Y-9871508D01*
X6842391Y-9871508D02*
X6861439Y-9842936D01*
X6861439Y-9842936D02*
X6870963Y-9833412D01*
X7051915Y-10061984D02*
X6937629Y-10061984D01*
X6994772Y-10061984D02*
X6994772Y-9861984D01*
X6994772Y-9861984D02*
X6975725Y-9890555D01*
X6975725Y-9890555D02*
X6956677Y-9909603D01*
X6956677Y-9909603D02*
X6937629Y-9919127D01*
X7290010Y-10061984D02*
X7290010Y-9861984D01*
X7375725Y-10061984D02*
X7375725Y-9957222D01*
X7375725Y-9957222D02*
X7366201Y-9938174D01*
X7366201Y-9938174D02*
X7347153Y-9928650D01*
X7347153Y-9928650D02*
X7318582Y-9928650D01*
X7318582Y-9928650D02*
X7299534Y-9938174D01*
X7299534Y-9938174D02*
X7290010Y-9947698D01*
X7499534Y-10061984D02*
X7480487Y-10052460D01*
X7480487Y-10052460D02*
X7470963Y-10042936D01*
X7470963Y-10042936D02*
X7461439Y-10023889D01*
X7461439Y-10023889D02*
X7461439Y-9966746D01*
X7461439Y-9966746D02*
X7470963Y-9947698D01*
X7470963Y-9947698D02*
X7480487Y-9938174D01*
X7480487Y-9938174D02*
X7499534Y-9928650D01*
X7499534Y-9928650D02*
X7528106Y-9928650D01*
X7528106Y-9928650D02*
X7547153Y-9938174D01*
X7547153Y-9938174D02*
X7556677Y-9947698D01*
X7556677Y-9947698D02*
X7566201Y-9966746D01*
X7566201Y-9966746D02*
X7566201Y-10023889D01*
X7566201Y-10023889D02*
X7556677Y-10042936D01*
X7556677Y-10042936D02*
X7547153Y-10052460D01*
X7547153Y-10052460D02*
X7528106Y-10061984D01*
X7528106Y-10061984D02*
X7499534Y-10061984D01*
X7680487Y-10061984D02*
X7661439Y-10052460D01*
X7661439Y-10052460D02*
X7651915Y-10033412D01*
X7651915Y-10033412D02*
X7651915Y-9861984D01*
X7832868Y-10052460D02*
X7813820Y-10061984D01*
X7813820Y-10061984D02*
X7775725Y-10061984D01*
X7775725Y-10061984D02*
X7756677Y-10052460D01*
X7756677Y-10052460D02*
X7747153Y-10033412D01*
X7747153Y-10033412D02*
X7747153Y-9957222D01*
X7747153Y-9957222D02*
X7756677Y-9938174D01*
X7756677Y-9938174D02*
X7775725Y-9928650D01*
X7775725Y-9928650D02*
X7813820Y-9928650D01*
X7813820Y-9928650D02*
X7832868Y-9938174D01*
X7832868Y-9938174D02*
X7842391Y-9957222D01*
X7842391Y-9957222D02*
X7842391Y-9976270D01*
X7842391Y-9976270D02*
X7747153Y-9995317D01*
X7918582Y-10052460D02*
X7937630Y-10061984D01*
X7937630Y-10061984D02*
X7975725Y-10061984D01*
X7975725Y-10061984D02*
X7994772Y-10052460D01*
X7994772Y-10052460D02*
X8004296Y-10033412D01*
X8004296Y-10033412D02*
X8004296Y-10023889D01*
X8004296Y-10023889D02*
X7994772Y-10004841D01*
X7994772Y-10004841D02*
X7975725Y-9995317D01*
X7975725Y-9995317D02*
X7947153Y-9995317D01*
X7947153Y-9995317D02*
X7928106Y-9985793D01*
X7928106Y-9985793D02*
X7918582Y-9966746D01*
X7918582Y-9966746D02*
X7918582Y-9957222D01*
X7918582Y-9957222D02*
X7928106Y-9938174D01*
X7928106Y-9938174D02*
X7947153Y-9928650D01*
X7947153Y-9928650D02*
X7975725Y-9928650D01*
X7975725Y-9928650D02*
X7994772Y-9938174D01*
X8242392Y-9985793D02*
X8394773Y-9985793D01*
X8318582Y-10061984D02*
X8318582Y-9909603D01*
X8747154Y-10061984D02*
X8632868Y-10061984D01*
X8690011Y-10061984D02*
X8690011Y-9861984D01*
X8690011Y-9861984D02*
X8670963Y-9890555D01*
X8670963Y-9890555D02*
X8651915Y-9909603D01*
X8651915Y-9909603D02*
X8632868Y-9919127D01*
X8975725Y-10052460D02*
X8994773Y-10061984D01*
X8994773Y-10061984D02*
X9032868Y-10061984D01*
X9032868Y-10061984D02*
X9051916Y-10052460D01*
X9051916Y-10052460D02*
X9061439Y-10033412D01*
X9061439Y-10033412D02*
X9061439Y-10023889D01*
X9061439Y-10023889D02*
X9051916Y-10004841D01*
X9051916Y-10004841D02*
X9032868Y-9995317D01*
X9032868Y-9995317D02*
X9004296Y-9995317D01*
X9004296Y-9995317D02*
X8985249Y-9985793D01*
X8985249Y-9985793D02*
X8975725Y-9966746D01*
X8975725Y-9966746D02*
X8975725Y-9957222D01*
X8975725Y-9957222D02*
X8985249Y-9938174D01*
X8985249Y-9938174D02*
X9004296Y-9928650D01*
X9004296Y-9928650D02*
X9032868Y-9928650D01*
X9032868Y-9928650D02*
X9051916Y-9938174D01*
X9175725Y-10061984D02*
X9156677Y-10052460D01*
X9156677Y-10052460D02*
X9147154Y-10033412D01*
X9147154Y-10033412D02*
X9147154Y-9861984D01*
X9280487Y-10061984D02*
X9261439Y-10052460D01*
X9261439Y-10052460D02*
X9251916Y-10042936D01*
X9251916Y-10042936D02*
X9242392Y-10023889D01*
X9242392Y-10023889D02*
X9242392Y-9966746D01*
X9242392Y-9966746D02*
X9251916Y-9947698D01*
X9251916Y-9947698D02*
X9261439Y-9938174D01*
X9261439Y-9938174D02*
X9280487Y-9928650D01*
X9280487Y-9928650D02*
X9309058Y-9928650D01*
X9309058Y-9928650D02*
X9328106Y-9938174D01*
X9328106Y-9938174D02*
X9337630Y-9947698D01*
X9337630Y-9947698D02*
X9347154Y-9966746D01*
X9347154Y-9966746D02*
X9347154Y-10023889D01*
X9347154Y-10023889D02*
X9337630Y-10042936D01*
X9337630Y-10042936D02*
X9328106Y-10052460D01*
X9328106Y-10052460D02*
X9309058Y-10061984D01*
X9309058Y-10061984D02*
X9280487Y-10061984D01*
X9404297Y-9928650D02*
X9480487Y-9928650D01*
X9432868Y-9861984D02*
X9432868Y-10033412D01*
X9432868Y-10033412D02*
X9442392Y-10052460D01*
X9442392Y-10052460D02*
X9461439Y-10061984D01*
X9461439Y-10061984D02*
X9480487Y-10061984D01*
X9528106Y-10138174D02*
X9537630Y-10128650D01*
X9537630Y-10128650D02*
X9556677Y-10100079D01*
X9556677Y-10100079D02*
X9566201Y-10081031D01*
X9566201Y-10081031D02*
X9575725Y-10052460D01*
X9575725Y-10052460D02*
X9585249Y-10004841D01*
X9585249Y-10004841D02*
X9585249Y-9966746D01*
X9585249Y-9966746D02*
X9575725Y-9919127D01*
X9575725Y-9919127D02*
X9566201Y-9890555D01*
X9566201Y-9890555D02*
X9556677Y-9871508D01*
X9556677Y-9871508D02*
X9537630Y-9842936D01*
X9537630Y-9842936D02*
X9528106Y-9833412D01*
X9890011Y-10138174D02*
X9880487Y-10128650D01*
X9880487Y-10128650D02*
X9861439Y-10100079D01*
X9861439Y-10100079D02*
X9851916Y-10081031D01*
X9851916Y-10081031D02*
X9842392Y-10052460D01*
X9842392Y-10052460D02*
X9832868Y-10004841D01*
X9832868Y-10004841D02*
X9832868Y-9966746D01*
X9832868Y-9966746D02*
X9842392Y-9919127D01*
X9842392Y-9919127D02*
X9851916Y-9890555D01*
X9851916Y-9890555D02*
X9861439Y-9871508D01*
X9861439Y-9871508D02*
X9880487Y-9842936D01*
X9880487Y-9842936D02*
X9890011Y-9833412D01*
X9966201Y-9928650D02*
X9966201Y-10061984D01*
X9966201Y-9947698D02*
X9975725Y-9938174D01*
X9975725Y-9938174D02*
X9994773Y-9928650D01*
X9994773Y-9928650D02*
X10023344Y-9928650D01*
X10023344Y-9928650D02*
X10042392Y-9938174D01*
X10042392Y-9938174D02*
X10051916Y-9957222D01*
X10051916Y-9957222D02*
X10051916Y-10061984D01*
X10175725Y-10061984D02*
X10156677Y-10052460D01*
X10156677Y-10052460D02*
X10147154Y-10042936D01*
X10147154Y-10042936D02*
X10137630Y-10023889D01*
X10137630Y-10023889D02*
X10137630Y-9966746D01*
X10137630Y-9966746D02*
X10147154Y-9947698D01*
X10147154Y-9947698D02*
X10156677Y-9938174D01*
X10156677Y-9938174D02*
X10175725Y-9928650D01*
X10175725Y-9928650D02*
X10204297Y-9928650D01*
X10204297Y-9928650D02*
X10223344Y-9938174D01*
X10223344Y-9938174D02*
X10232868Y-9947698D01*
X10232868Y-9947698D02*
X10242392Y-9966746D01*
X10242392Y-9966746D02*
X10242392Y-10023889D01*
X10242392Y-10023889D02*
X10232868Y-10042936D01*
X10232868Y-10042936D02*
X10223344Y-10052460D01*
X10223344Y-10052460D02*
X10204297Y-10061984D01*
X10204297Y-10061984D02*
X10175725Y-10061984D01*
X10299535Y-9928650D02*
X10375725Y-9928650D01*
X10328106Y-9861984D02*
X10328106Y-10033412D01*
X10328106Y-10033412D02*
X10337630Y-10052460D01*
X10337630Y-10052460D02*
X10356677Y-10061984D01*
X10356677Y-10061984D02*
X10375725Y-10061984D01*
X10594773Y-9928650D02*
X10594773Y-10128650D01*
X10594773Y-9938174D02*
X10613820Y-9928650D01*
X10613820Y-9928650D02*
X10651916Y-9928650D01*
X10651916Y-9928650D02*
X10670963Y-9938174D01*
X10670963Y-9938174D02*
X10680487Y-9947698D01*
X10680487Y-9947698D02*
X10690011Y-9966746D01*
X10690011Y-9966746D02*
X10690011Y-10023889D01*
X10690011Y-10023889D02*
X10680487Y-10042936D01*
X10680487Y-10042936D02*
X10670963Y-10052460D01*
X10670963Y-10052460D02*
X10651916Y-10061984D01*
X10651916Y-10061984D02*
X10613820Y-10061984D01*
X10613820Y-10061984D02*
X10594773Y-10052460D01*
X10804297Y-10061984D02*
X10785249Y-10052460D01*
X10785249Y-10052460D02*
X10775725Y-10033412D01*
X10775725Y-10033412D02*
X10775725Y-9861984D01*
X10966201Y-10061984D02*
X10966201Y-9957222D01*
X10966201Y-9957222D02*
X10956678Y-9938174D01*
X10956678Y-9938174D02*
X10937630Y-9928650D01*
X10937630Y-9928650D02*
X10899535Y-9928650D01*
X10899535Y-9928650D02*
X10880487Y-9938174D01*
X10966201Y-10052460D02*
X10947154Y-10061984D01*
X10947154Y-10061984D02*
X10899535Y-10061984D01*
X10899535Y-10061984D02*
X10880487Y-10052460D01*
X10880487Y-10052460D02*
X10870963Y-10033412D01*
X10870963Y-10033412D02*
X10870963Y-10014365D01*
X10870963Y-10014365D02*
X10880487Y-9995317D01*
X10880487Y-9995317D02*
X10899535Y-9985793D01*
X10899535Y-9985793D02*
X10947154Y-9985793D01*
X10947154Y-9985793D02*
X10966201Y-9976270D01*
X11032868Y-9928650D02*
X11109058Y-9928650D01*
X11061439Y-9861984D02*
X11061439Y-10033412D01*
X11061439Y-10033412D02*
X11070963Y-10052460D01*
X11070963Y-10052460D02*
X11090011Y-10061984D01*
X11090011Y-10061984D02*
X11109058Y-10061984D01*
X11251916Y-10052460D02*
X11232868Y-10061984D01*
X11232868Y-10061984D02*
X11194773Y-10061984D01*
X11194773Y-10061984D02*
X11175725Y-10052460D01*
X11175725Y-10052460D02*
X11166201Y-10033412D01*
X11166201Y-10033412D02*
X11166201Y-9957222D01*
X11166201Y-9957222D02*
X11175725Y-9938174D01*
X11175725Y-9938174D02*
X11194773Y-9928650D01*
X11194773Y-9928650D02*
X11232868Y-9928650D01*
X11232868Y-9928650D02*
X11251916Y-9938174D01*
X11251916Y-9938174D02*
X11261439Y-9957222D01*
X11261439Y-9957222D02*
X11261439Y-9976270D01*
X11261439Y-9976270D02*
X11166201Y-9995317D01*
X11432868Y-10061984D02*
X11432868Y-9861984D01*
X11432868Y-10052460D02*
X11413820Y-10061984D01*
X11413820Y-10061984D02*
X11375725Y-10061984D01*
X11375725Y-10061984D02*
X11356677Y-10052460D01*
X11356677Y-10052460D02*
X11347154Y-10042936D01*
X11347154Y-10042936D02*
X11337630Y-10023889D01*
X11337630Y-10023889D02*
X11337630Y-9966746D01*
X11337630Y-9966746D02*
X11347154Y-9947698D01*
X11347154Y-9947698D02*
X11356677Y-9938174D01*
X11356677Y-9938174D02*
X11375725Y-9928650D01*
X11375725Y-9928650D02*
X11413820Y-9928650D01*
X11413820Y-9928650D02*
X11432868Y-9938174D01*
X11509058Y-10138174D02*
X11518582Y-10128650D01*
X11518582Y-10128650D02*
X11537630Y-10100079D01*
X11537630Y-10100079D02*
X11547154Y-10081031D01*
X11547154Y-10081031D02*
X11556677Y-10052460D01*
X11556677Y-10052460D02*
X11566201Y-10004841D01*
X11566201Y-10004841D02*
X11566201Y-9966746D01*
X11566201Y-9966746D02*
X11556677Y-9919127D01*
X11556677Y-9919127D02*
X11547154Y-9890555D01*
X11547154Y-9890555D02*
X11537630Y-9871508D01*
X11537630Y-9871508D02*
X11518582Y-9842936D01*
X11518582Y-9842936D02*
X11509058Y-9833412D01*
M02*
